<svg width="275" height="184" viewBox="0 0 275 184" fill="none" xmlns="http://www.w3.org/2000/svg">
<path d="M221.276 129.03L243.576 155.999" stroke="black" stroke-width="3"/>
<path d="M223.215 15.4574L243.576 9.75977" stroke="black" stroke-width="3"/>
<g filter="url(#filter0_d_291_335)">
<path d="M7 9L24.4523 15.8372M7 9V156.379H246V9H7Z" stroke="black" stroke-width="4"/>
<path d="M24.937 15.8372V129.03" stroke="black" stroke-width="4"/>
<path d="M58.68 89V53.12H63.048V68.2H81.352V53.12H85.72V89H81.352V72.152H63.048V89H58.68ZM91.6582 57.072V53.12H119.946V57.072H107.986V89H103.618V57.072H91.6582ZM125.864 89V53.12H131.636L143.648 78.6L155.608 53.12H161.38V89H157.012V59.672L145.676 83.8H141.568L130.232 59.672V89H125.864ZM170.754 89V53.12H175.122V85.048H192.594V89H170.754Z" fill="#0F0E0E"/>
<path d="M25.4219 129.03H223.7V15.8372H25.4219" stroke="black" stroke-width="4"/>
<path d="M25.4219 130.17L7 156.379" stroke="black" stroke-width="4"/>
</g>
<defs>
<filter id="filter0_d_291_335" x="0" y="0" width="275" height="183.379" filterUnits="userSpaceOnUse" color-interpolation-filters="sRGB">
<feFlood flood-opacity="0" result="BackgroundImageFix"/>
<feColorMatrix in="SourceAlpha" type="matrix" values="0 0 0 0 0 0 0 0 0 0 0 0 0 0 0 0 0 0 127 0" result="hardAlpha"/>
<feOffset dx="11" dy="9"/>
<feGaussianBlur stdDeviation="8"/>
<feComposite in2="hardAlpha" operator="out"/>
<feColorMatrix type="matrix" values="0 0 0 0 0 0 0 0 0 0 0 0 0 0 0 0 0 0 1 0"/>
<feBlend mode="normal" in2="BackgroundImageFix" result="effect1_dropShadow_291_335"/>
<feBlend mode="normal" in="SourceGraphic" in2="effect1_dropShadow_291_335" result="shape"/>
</filter>
</defs>
</svg>
