<svg width="474" height="128" viewBox="0 0 474 128" fill="none" xmlns="http://www.w3.org/2000/svg">
<rect y="99" width="474" height="29" rx="14.5" fill="#4F4F4F"/>
<rect x="2" y="104.265" width="244" height="17" rx="8.5" fill="url(#paint0_linear_291_426)"/>
<path d="M205 112.867C205 117.359 208.641 121 213.133 121H236.867C241.359 121 245 117.359 245 112.867C245 108.376 241.359 104.735 236.867 104.735H213.133C208.641 104.735 205 108.376 205 112.867Z" fill="#2CFF85"/>
<path d="M141.612 42V16.8H144.564V42H141.612ZM135.78 42V39.264H150.396V42H135.78ZM135.78 19.518V16.8H150.396V19.518H135.78ZM157.91 42V23.604H160.844V27.042L160.376 26.412C160.664 25.74 161.072 25.164 161.6 24.684C162.128 24.204 162.752 23.832 163.472 23.568C164.192 23.304 164.99 23.172 165.866 23.172C167.33 23.172 168.566 23.454 169.574 24.018C170.594 24.582 171.362 25.482 171.878 26.718C172.406 27.942 172.67 29.55 172.67 31.542V42H169.754V30.984C169.754 29.1 169.334 27.774 168.494 27.006C167.666 26.238 166.64 25.854 165.416 25.854C164.528 25.854 163.736 26.01 163.04 26.322C162.356 26.634 161.816 27.156 161.42 27.888C161.036 28.62 160.844 29.628 160.844 30.912V42H157.91ZM189.129 42.432C187.473 42.432 186.285 42.018 185.565 41.19C184.857 40.362 184.503 39.258 184.503 37.878V26.214H180.273V23.604H184.503V17.448L187.437 16.008V23.604H193.611V26.214H187.437V36.87C187.437 37.434 187.497 37.932 187.617 38.364C187.749 38.784 188.007 39.12 188.391 39.372C188.775 39.612 189.345 39.732 190.101 39.732C190.977 39.732 191.673 39.618 192.189 39.39C192.705 39.162 193.149 38.934 193.521 38.706L193.179 41.604C192.699 41.856 192.153 42.054 191.541 42.198C190.941 42.354 190.137 42.432 189.129 42.432ZM210.017 42.432C208.253 42.432 206.741 42 205.481 41.136C204.233 40.272 203.279 39.108 202.619 37.644C201.959 36.18 201.629 34.56 201.629 32.784C201.629 30.756 201.977 29.028 202.673 27.6C203.369 26.16 204.341 25.062 205.589 24.306C206.849 23.55 208.325 23.172 210.017 23.172C211.397 23.172 212.663 23.484 213.815 24.108C214.979 24.732 215.909 25.698 216.605 27.006C217.301 28.302 217.649 29.97 217.649 32.01C217.649 32.238 217.643 32.52 217.631 32.856C217.631 33.18 217.607 33.552 217.559 33.972H203.933V31.38H214.715C214.691 29.916 214.427 28.782 213.923 27.978C213.431 27.162 212.825 26.592 212.105 26.268C211.385 25.944 210.689 25.782 210.017 25.782C208.145 25.782 206.771 26.376 205.895 27.564C205.019 28.74 204.581 30.318 204.581 32.298C204.581 34.602 205.067 36.42 206.039 37.752C207.011 39.084 208.367 39.75 210.107 39.75C210.839 39.75 211.565 39.636 212.285 39.408C213.005 39.168 213.713 38.772 214.409 38.22L216.065 40.146C215.297 40.806 214.391 41.352 213.347 41.784C212.315 42.216 211.205 42.432 210.017 42.432ZM222.57 42V39.39H226.404V26.214H222.57V23.604H229.23V27.726L229.014 27.204C229.398 26.376 229.98 25.662 230.76 25.062C231.552 24.462 232.434 24 233.406 23.676C234.39 23.34 235.368 23.172 236.34 23.172C237.276 23.172 238.074 23.256 238.734 23.424C239.394 23.592 239.922 23.796 240.318 24.036V30.354H237.384V24.9L238.284 26.304C237.984 26.22 237.66 26.16 237.312 26.124C236.976 26.088 236.622 26.07 236.25 26.07C235.038 26.07 233.91 26.274 232.866 26.682C231.822 27.078 230.982 27.666 230.346 28.446C229.722 29.226 229.41 30.18 229.41 31.308V39.39H234.828V42H222.57ZM244.754 42V23.604H247.634V27.006L247.202 26.718C247.538 25.59 248.012 24.72 248.624 24.108C249.236 23.484 250.028 23.172 251 23.172C252.044 23.172 252.86 23.472 253.448 24.072C254.036 24.66 254.438 25.302 254.654 25.998C255.074 25.23 255.62 24.57 256.292 24.018C256.976 23.454 257.81 23.172 258.794 23.172C260.318 23.172 261.446 23.67 262.178 24.666C262.91 25.662 263.276 27.264 263.276 29.472V42H260.378V30.732C260.378 29.112 260.24 27.906 259.964 27.114C259.7 26.31 259.106 25.908 258.182 25.908C257.534 25.908 257.012 26.136 256.616 26.592C256.22 27.036 255.932 27.642 255.752 28.41C255.572 29.166 255.482 30.006 255.482 30.93V42H252.584V30.354C252.584 29.574 252.536 28.848 252.44 28.176C252.344 27.492 252.146 26.946 251.846 26.538C251.546 26.118 251.09 25.908 250.478 25.908C249.842 25.908 249.314 26.136 248.894 26.592C248.474 27.036 248.156 27.642 247.94 28.41C247.736 29.166 247.634 30.006 247.634 30.93V42H244.754ZM276.568 42.432C274.804 42.432 273.292 42 272.032 41.136C270.784 40.272 269.83 39.108 269.17 37.644C268.51 36.18 268.18 34.56 268.18 32.784C268.18 30.756 268.528 29.028 269.224 27.6C269.92 26.16 270.892 25.062 272.14 24.306C273.4 23.55 274.876 23.172 276.568 23.172C277.948 23.172 279.214 23.484 280.366 24.108C281.53 24.732 282.46 25.698 283.156 27.006C283.852 28.302 284.2 29.97 284.2 32.01C284.2 32.238 284.194 32.52 284.182 32.856C284.182 33.18 284.158 33.552 284.11 33.972H270.484V31.38H281.266C281.242 29.916 280.978 28.782 280.474 27.978C279.982 27.162 279.376 26.592 278.656 26.268C277.936 25.944 277.24 25.782 276.568 25.782C274.696 25.782 273.322 26.376 272.446 27.564C271.57 28.74 271.132 30.318 271.132 32.298C271.132 34.602 271.618 36.42 272.59 37.752C273.562 39.084 274.918 39.75 276.658 39.75C277.39 39.75 278.116 39.636 278.836 39.408C279.556 39.168 280.264 38.772 280.96 38.22L282.616 40.146C281.848 40.806 280.942 41.352 279.898 41.784C278.866 42.216 277.756 42.432 276.568 42.432ZM297.815 42.432C296.183 42.432 294.773 42.042 293.585 41.262C292.397 40.47 291.485 39.354 290.849 37.914C290.213 36.474 289.895 34.764 289.895 32.784C289.895 30.768 290.219 29.046 290.867 27.618C291.515 26.178 292.427 25.08 293.603 24.324C294.791 23.556 296.183 23.172 297.779 23.172C298.979 23.172 299.981 23.346 300.785 23.694C301.589 24.042 302.255 24.444 302.783 24.9V17.43L305.717 16.008V42H302.783V40.452C302.291 40.98 301.643 41.442 300.839 41.838C300.047 42.234 299.039 42.432 297.815 42.432ZM298.175 39.732C299.195 39.732 300.095 39.51 300.875 39.066C301.667 38.61 302.303 37.962 302.783 37.122V28.302C302.435 27.738 301.889 27.192 301.145 26.664C300.401 26.124 299.405 25.854 298.157 25.854C296.465 25.854 295.169 26.454 294.269 27.654C293.369 28.842 292.919 30.552 292.919 32.784C292.919 34.092 293.129 35.274 293.549 36.33C293.969 37.374 294.569 38.202 295.349 38.814C296.141 39.426 297.083 39.732 298.175 39.732ZM319.567 41.46V23.604H322.501V41.46H319.567ZM314.491 42V39.39H327.577V42H314.491ZM314.491 26.214V23.604H321.187V26.214H314.491ZM321.025 20.13C320.509 20.13 320.071 19.95 319.711 19.59C319.351 19.23 319.171 18.786 319.171 18.258C319.171 17.718 319.351 17.268 319.711 16.908C320.071 16.536 320.509 16.35 321.025 16.35C321.577 16.35 322.027 16.536 322.375 16.908C322.723 17.268 322.897 17.718 322.897 18.258C322.897 18.786 322.723 19.23 322.375 19.59C322.027 19.95 321.577 20.13 321.025 20.13ZM342.74 42.432C341.024 42.432 339.524 42.054 338.24 41.298C336.956 40.542 335.954 39.45 335.234 38.022C334.526 36.582 334.172 34.848 334.172 32.82C334.172 30.816 334.526 29.094 335.234 27.654C335.954 26.214 336.956 25.11 338.24 24.342C339.524 23.562 341.024 23.172 342.74 23.172C344.468 23.172 345.974 23.55 347.258 24.306C348.554 25.062 349.556 26.16 350.264 27.6C350.972 29.04 351.326 30.768 351.326 32.784C351.326 34.788 350.972 36.51 350.264 37.95C349.556 39.39 348.554 40.5 347.258 41.28C345.974 42.048 344.468 42.432 342.74 42.432ZM342.74 39.732C344.516 39.732 345.884 39.114 346.844 37.878C347.816 36.642 348.302 34.944 348.302 32.784C348.302 30.636 347.834 28.944 346.898 27.708C345.962 26.472 344.576 25.854 342.74 25.854C340.928 25.854 339.548 26.46 338.6 27.672C337.652 28.872 337.178 30.588 337.178 32.82C337.178 34.956 337.652 36.642 338.6 37.878C339.548 39.114 340.928 39.732 342.74 39.732Z" fill="#030303"/>
<defs>
<linearGradient id="paint0_linear_291_426" x1="2" y1="112.765" x2="246" y2="112.765" gradientUnits="userSpaceOnUse">
<stop offset="0.8" stop-color="#429264"/>
<stop offset="1" stop-color="#2CFF85"/>
</linearGradient>
</defs>
</svg>
