<svg width="286" height="97" viewBox="0 0 286 97" fill="none" xmlns="http://www.w3.org/2000/svg">
<path d="M190.069 76.4961C190.069 74.5039 190.772 72.834 192.179 71.4863C193.614 70.1387 195.475 69.4648 197.76 69.4648C200.074 69.4648 201.92 70.1387 203.297 71.4863C204.703 72.834 205.406 74.5039 205.406 76.4961C205.406 78.459 204.703 80.1143 203.297 81.4619C201.92 82.8096 200.074 83.4834 197.76 83.4834C195.475 83.4834 193.614 82.8096 192.179 81.4619C190.772 80.1143 190.069 78.459 190.069 76.4961Z" fill="#050505"/>
<path d="M0 94L211.89 92.9712" stroke="#040404" stroke-width="3"/>
<path d="M29.6713 41.75H31.4863V83H29.6713V41.75ZM45.5757 83.605C43.8157 83.605 42.2574 83.3117 40.9007 82.725C39.5441 82.1017 38.5724 81.3133 37.9857 80.36V77.445C38.6824 79.0217 39.6357 80.195 40.8457 80.965C42.0557 81.6983 43.5957 82.065 45.4657 82.065C47.2624 82.065 48.7107 81.515 49.8107 80.415C50.9107 79.2783 51.4607 77.83 51.4607 76.07C51.4607 74.5667 51.1491 73.4117 50.5257 72.605C49.9024 71.7617 48.8941 70.9183 47.5007 70.075L45.4107 68.865C43.9074 67.9483 42.7707 67.2333 42.0007 66.72C41.2674 66.17 40.6807 65.565 40.2407 64.905C39.8007 64.2083 39.5807 63.4017 39.5807 62.485C39.5807 61.0183 40.0941 59.845 41.1207 58.965C42.1474 58.085 43.4857 57.645 45.1357 57.645C47.1524 57.645 48.8391 58.1033 50.1957 59.02V61.44C49.0591 59.9367 47.4274 59.185 45.3007 59.185C44.1274 59.185 43.1741 59.4783 42.4407 60.065C41.7074 60.6517 41.3407 61.4033 41.3407 62.32C41.3407 63.1267 41.5607 63.8417 42.0007 64.465C42.4407 65.0517 43.0457 65.6017 43.8157 66.115C44.6224 66.6283 45.9424 67.3983 47.7757 68.425C49.6457 69.4883 51.0207 70.5883 51.9007 71.725C52.7807 72.825 53.2207 74.2733 53.2207 76.07C53.2207 78.3433 52.4691 80.1767 50.9657 81.57C49.4991 82.9267 47.7024 83.605 45.5757 83.605ZM70.3618 83.605C68.0152 83.605 65.8335 83.0183 63.8168 81.845C61.8001 80.6717 60.2051 79.095 59.0318 77.115C57.8585 75.0983 57.2718 72.935 57.2718 70.625C57.2718 68.315 57.8585 66.17 59.0318 64.19C60.2051 62.1733 61.8001 60.5783 63.8168 59.405C65.8335 58.2317 68.0152 57.645 70.3618 57.645C72.7451 57.645 75.0002 58.2867 77.1268 59.57C79.2535 60.8167 80.7385 62.4483 81.5818 64.465V58.25H83.3418V83H81.5818V76.84C80.5918 78.8933 79.0518 80.5433 76.9618 81.79C74.9085 83 72.7085 83.605 70.3618 83.605ZM70.4718 82.065C72.4885 82.065 74.3585 81.5517 76.0818 80.525C77.8052 79.4617 79.1618 78.0683 80.1518 76.345C81.1785 74.585 81.6918 72.6783 81.6918 70.625C81.6918 68.6083 81.1785 66.72 80.1518 64.96C79.1252 63.2 77.7502 61.8067 76.0268 60.78C74.3035 59.7167 72.4335 59.185 70.4168 59.185C68.4002 59.185 66.5118 59.7167 64.7518 60.78C63.0285 61.8433 61.6351 63.255 60.5718 65.015C59.5452 66.775 59.0318 68.6633 59.0318 70.68C59.0318 72.6967 59.5452 74.585 60.5718 76.345C61.6351 78.0683 63.0468 79.4617 64.8068 80.525C66.5668 81.5517 68.4552 82.065 70.4718 82.065ZM101.944 83.605C99.5972 83.605 97.4155 83.0183 95.3988 81.845C93.3822 80.6717 91.7872 79.095 90.6138 77.115C89.4405 75.0983 88.8538 72.935 88.8538 70.625C88.8538 68.315 89.4405 66.17 90.6138 64.19C91.7872 62.1733 93.3822 60.5783 95.3988 59.405C97.4155 58.2317 99.5972 57.645 101.944 57.645C104.327 57.645 106.582 58.2867 108.709 59.57C110.836 60.8167 112.321 62.4483 113.164 64.465V58.25H114.924V83H113.164V76.84C112.174 78.8933 110.634 80.5433 108.544 81.79C106.491 83 104.291 83.605 101.944 83.605ZM102.054 82.065C104.071 82.065 105.941 81.5517 107.664 80.525C109.387 79.4617 110.744 78.0683 111.734 76.345C112.761 74.585 113.274 72.6783 113.274 70.625C113.274 68.6083 112.761 66.72 111.734 64.96C110.707 63.2 109.332 61.8067 107.609 60.78C105.886 59.7167 104.016 59.185 101.999 59.185C99.9822 59.185 98.0938 59.7167 96.3338 60.78C94.6105 61.8433 93.2172 63.255 92.1538 65.015C91.1272 66.775 90.6138 68.6633 90.6138 70.68C90.6138 72.6967 91.1272 74.585 92.1538 76.345C93.2172 78.0683 94.6288 79.4617 96.3888 80.525C98.1488 81.5517 100.037 82.065 102.054 82.065ZM133.526 83.715C131.143 83.715 128.943 83.1467 126.926 82.01C124.946 80.8733 123.369 79.315 122.196 77.335C121.023 75.355 120.436 73.1183 120.436 70.625C120.436 68.315 121.023 66.1883 122.196 64.245C123.369 62.265 124.964 60.6883 126.981 59.515C129.034 58.3417 131.289 57.755 133.746 57.755C135.799 57.755 137.559 58.085 139.026 58.745C140.493 59.405 141.923 60.4317 143.316 61.825V64.795C142.106 62.9983 140.749 61.6417 139.246 60.725C137.779 59.7717 135.946 59.295 133.746 59.295C131.729 59.295 129.823 59.8267 128.026 60.89C126.266 61.9167 124.854 63.31 123.791 65.07C122.728 66.83 122.196 68.7183 122.196 70.735C122.196 72.935 122.709 74.915 123.736 76.675C124.763 78.3983 126.138 79.755 127.861 80.745C129.621 81.6983 131.509 82.175 133.526 82.175C137.633 82.175 140.896 80.3233 143.316 76.62V79.59C141.996 80.9833 140.529 82.0283 138.916 82.725C137.339 83.385 135.543 83.715 133.526 83.715ZM161.149 41.75H162.964V81.405H175.724V83H161.149V41.75Z" fill="#060606"/>
</svg>
