<svg width="552" height="591" viewBox="0 0 552 591" fill="none" xmlns="http://www.w3.org/2000/svg">
<g filter="url(#filter0_d_388_398)">
<path d="M527.727 569.556L0.0102341 567.923C4.89245 379.181 8.1854 190.433 3.53236 1.50499L527.709 3.12651C523.507 193.903 524.548 382.663 527.727 569.556Z" fill="url(#paint0_linear_388_398)"/>
</g>
<path d="M77.6434 276.508C77.6821 274.425 77.9301 271.594 78.3873 268.015C78.9096 264.436 79.6321 260.597 80.5548 256.498C81.5425 252.399 82.7262 248.268 84.1057 244.105C85.4865 239.877 87.0873 236.073 88.9081 232.692C90.794 229.312 92.8962 226.55 95.2148 224.407C97.5985 222.265 100.19 221.196 102.99 221.203C104.617 221.207 105.979 221.503 107.075 222.091C108.236 222.68 109.165 223.496 109.861 224.539C110.624 225.517 111.157 226.658 111.458 227.96C111.826 229.198 111.995 230.565 111.968 232.062C110.796 232.06 109.857 231.765 109.152 231.177C108.448 230.524 107.81 229.839 107.237 229.122C106.664 228.405 106.058 227.752 105.418 227.165C104.844 226.513 104.036 226.185 102.995 226.183C100.911 226.178 98.9719 227.182 97.1766 229.196C95.3824 231.145 93.7408 233.647 92.2516 236.703C90.7624 239.759 89.4293 243.174 88.2523 246.947C87.0765 250.654 86.0647 254.297 85.2168 257.876C84.4353 261.389 83.822 264.61 83.3769 267.538C82.9329 270.401 82.6977 272.549 82.671 273.981C82.6359 275.869 82.6991 277.724 82.8605 279.547C83.0231 281.305 83.4166 282.901 84.041 284.334C84.6654 285.768 85.5876 286.942 86.8076 287.856C88.0289 288.705 89.7788 289.132 92.0575 289.137C94.6616 289.144 97.249 288.303 99.8195 286.617C102.455 284.93 104.902 282.886 107.16 280.482C109.42 278.014 111.389 275.415 113.067 272.685C114.747 269.889 115.964 267.451 116.719 265.37C116.851 265.305 117.144 265.273 117.6 265.274C118.057 265.21 118.351 265.178 118.481 265.179C119.262 265.181 119.976 265.28 120.624 265.477C121.337 265.608 121.685 266.195 121.665 267.237C121.236 269.319 120.283 271.53 118.807 273.87C117.333 276.145 115.598 278.386 113.604 280.595C111.61 282.804 109.423 284.849 107.044 286.731C104.665 288.614 102.357 290.203 100.119 291.5C97.8816 292.796 95.8144 293.67 93.9179 294.122C92.0202 294.638 90.4909 294.602 89.3299 294.013C87.1815 294.008 85.3369 293.418 83.7962 292.243C82.3218 291.003 81.1127 289.503 80.1688 287.743C79.2901 285.983 78.6416 284.094 78.2234 282.075C77.8052 280.056 77.6119 278.2 77.6434 276.508ZM126.297 280.722C125.897 277.727 125.723 274.83 125.775 272.031C125.829 269.167 126.045 266.27 126.425 263.342C126.871 260.414 127.448 257.388 128.157 254.265C128.932 251.077 129.81 247.662 130.789 244.019C130.802 243.303 131.01 242.652 131.411 242.067C131.814 241.417 132.344 240.898 133.003 240.509C133.662 240.055 134.353 239.698 135.074 239.439C135.794 239.181 136.481 239.052 137.132 239.054C138.564 239.057 139.857 239.516 141.012 240.43C142.167 241.344 143.188 242.453 144.076 243.757C145.028 245.061 145.816 246.462 146.439 247.961C147.128 249.395 147.691 250.633 148.128 251.675C148.606 253.955 148.916 256.559 149.057 259.489C149.264 262.354 149.242 265.283 148.991 268.277C148.74 271.271 148.229 274.231 147.458 277.159C146.689 280.021 145.631 282.655 144.284 285.061C142.937 287.466 141.207 289.48 139.093 291.102C137.045 292.725 134.617 293.728 131.81 294.112C130.313 294.109 129.183 293.618 128.42 292.64C127.658 291.596 127.095 290.358 126.731 288.925C126.433 287.427 126.266 285.93 126.228 284.433C126.256 282.935 126.279 281.699 126.297 280.722ZM131.283 280.441C131.271 281.092 131.26 281.71 131.249 282.296C131.303 282.882 131.357 283.468 131.411 284.054C131.532 284.575 131.651 285.161 131.769 285.812C131.954 286.399 132.169 287.083 132.415 287.865L133.001 287.866C134.563 287.87 135.908 287.352 137.034 286.313C138.16 285.274 139.129 283.942 139.94 282.316C140.753 280.626 141.438 278.772 141.997 276.755C142.556 274.674 142.985 272.657 143.281 270.705C143.644 268.687 143.874 266.833 143.971 265.14C144.134 263.383 144.225 261.984 144.244 260.942L144.281 258.99C144.296 258.143 144.281 257.2 144.236 256.158C144.191 255.051 144.081 253.944 143.907 252.837C143.798 251.665 143.59 250.623 143.281 249.711C142.974 248.734 142.565 247.952 142.055 247.365C141.545 246.778 140.867 246.483 140.021 246.481C138.597 246.022 137.358 246.117 136.304 246.766C135.316 247.414 134.481 248.519 133.801 250.08C133.188 251.575 132.697 253.43 132.331 255.642C131.964 257.854 131.723 260.295 131.608 262.964C131.494 265.632 131.408 268.464 131.353 271.458C131.362 274.452 131.339 277.447 131.283 280.441ZM156.931 292.901C156.379 284.112 155.891 275.323 155.469 266.534C155.113 257.68 154.697 248.501 154.223 238.996C154.252 237.434 155.113 236.655 156.806 236.658L157.587 236.66C157.782 236.661 158.005 236.922 158.256 237.443C158.507 237.964 158.749 238.941 158.983 240.374C159.283 241.742 159.569 243.858 159.841 246.723C160.18 249.523 160.567 253.202 161.003 257.759C161.439 262.317 161.919 268.014 162.443 274.85C163.893 270.427 165.047 266.133 165.906 261.969C166.764 257.805 167.844 254.032 169.144 250.65C170.445 247.203 172.226 244.18 174.488 241.582C176.815 238.983 180.106 237.071 184.361 235.844C186.698 236.24 188.559 237.676 189.945 240.153C191.333 242.565 192.416 245.562 193.196 249.144C193.976 252.726 194.489 256.633 194.736 260.865C194.984 265.032 195.105 269.035 195.099 272.876C195.092 276.716 195.061 280.166 195.004 283.226C194.948 286.22 194.973 288.368 195.079 289.671C194.874 290.191 194.573 290.646 194.175 291.035C193.777 291.425 193.316 291.717 192.791 291.911C192.333 292.04 191.877 292.072 191.422 292.005C190.969 291.874 190.552 291.515 190.173 290.928C190.186 290.212 190.148 288.748 190.059 286.534C189.97 284.321 189.855 281.749 189.714 278.82C189.575 275.825 189.406 272.667 189.207 269.347C189.075 265.962 188.938 262.804 188.797 259.875C188.723 256.88 188.641 254.276 188.552 252.063C188.463 249.849 188.392 248.384 188.341 247.668C187.018 245.256 185.676 243.886 184.315 243.558C183.019 243.229 181.677 243.649 180.288 244.818C178.964 245.986 177.661 247.773 176.379 250.179C175.098 252.584 173.875 255.316 172.711 258.372C171.549 261.364 170.448 264.519 169.41 267.836C168.372 271.154 167.465 274.374 166.691 277.497C165.918 280.554 165.247 283.352 164.679 285.889C164.178 288.362 163.849 290.281 163.693 291.648C163.49 292.103 163.058 292.558 162.398 293.012C161.805 293.401 161.149 293.692 160.429 293.886C159.774 294.08 159.089 294.143 158.375 294.077C157.726 293.945 157.245 293.553 156.931 292.901ZM204.558 252.588C203.901 252.912 203.276 253.269 202.683 253.658C202.156 253.982 201.629 254.306 201.102 254.63C200.577 254.89 200.052 255.084 199.529 255.213C199.006 255.342 198.452 255.34 197.869 255.209C197.478 255.208 197.157 254.979 196.905 254.523C196.654 254.002 196.469 253.448 196.35 252.862C196.167 252.21 196.048 251.592 195.994 251.006C195.941 250.355 195.95 249.866 196.021 249.541L205.496 244.193L206.547 219.199C206.693 218.353 207.22 218.028 208.127 218.226C209.036 218.358 209.977 218.556 210.948 218.818C211.079 218.819 211.273 218.884 211.531 219.015C211.855 219.081 212.082 219.146 212.211 219.212C212.048 220.969 211.849 222.889 211.615 224.971C211.448 226.989 211.279 229.039 211.11 231.122C210.942 233.139 210.808 235.124 210.706 237.077C210.67 239.03 210.735 240.788 210.901 242.35L225.626 238.284C225.888 238.219 226.079 238.415 226.201 238.871C226.389 239.262 226.543 239.75 226.662 240.336C226.847 240.923 226.966 241.509 227.02 242.095C227.074 242.681 227.101 242.974 227.101 242.974L210.369 249.965C210.358 250.551 210.365 251.951 210.389 254.164C210.478 256.377 210.559 259.014 210.632 262.074C210.707 265.068 210.776 268.323 210.841 271.838C210.907 275.289 210.977 278.511 211.052 281.506C211.126 284.5 211.175 287.137 211.198 289.415C211.222 291.628 211.228 293.028 211.217 293.614C211.051 295.566 210.447 296.541 209.405 296.539C208.428 296.537 207.363 296.046 206.21 295.067L204.558 252.588ZM228.877 247.274L228.891 246.493C228.904 245.842 229.14 245.387 229.6 245.128C230.126 244.869 230.714 244.74 231.366 244.741C231.886 244.743 232.373 244.809 232.827 244.94C233.281 245.006 233.633 245.365 233.881 246.017C234.058 246.993 234.228 248.361 234.391 250.119C234.554 251.812 234.747 253.7 234.969 255.784C235.191 257.867 235.41 260.081 235.627 262.425C235.91 264.704 236.162 266.885 236.384 268.969C236.672 270.987 236.963 272.811 237.259 274.439C237.554 276.067 237.889 277.304 238.264 278.152C238.185 271.902 238.481 266.5 239.151 261.945C239.823 257.325 241 253.584 242.68 250.724C244.428 247.799 246.744 245.786 249.629 244.686C252.58 243.521 256.231 243.27 260.581 243.931C262.599 243.935 263.588 245.012 263.548 247.16C263.533 248.006 262.968 248.591 261.856 248.913C260.744 249.171 259.503 249.364 258.134 249.491C256.765 249.553 255.429 249.647 254.124 249.774C252.82 249.901 251.87 250.225 251.274 250.744C248.906 252.04 247.209 254.054 246.181 256.786C245.219 259.518 244.508 262.738 244.048 266.448C243.589 270.157 243.22 274.225 242.942 278.651C242.731 283.012 242.224 287.502 241.422 292.122C241.41 292.773 241.14 293.26 240.614 293.585C240.087 293.909 239.433 294.07 238.651 294.068C237.935 294.067 237.222 293.902 236.512 293.575C235.867 293.248 235.355 292.759 234.977 292.107L228.877 247.274ZM295.431 291.955C295.137 290.262 294.882 288.243 294.665 285.899C294.514 283.49 294.331 281.081 294.116 278.672C293.901 276.198 293.619 273.887 293.268 271.738C292.983 269.589 292.494 267.83 291.804 266.461C288.358 273.223 285.329 278.554 282.717 282.454C280.106 286.288 277.809 289.05 275.824 290.737C273.906 292.36 272.296 293.138 270.995 293.07C269.695 293.002 268.631 292.413 267.806 291.305C266.98 290.196 266.387 288.795 266.028 287.102C265.735 285.344 265.538 283.716 265.435 282.218C265.462 280.786 265.825 278.769 266.525 276.167C267.224 273.565 268.156 270.735 269.319 267.678C270.484 264.557 271.845 261.403 273.402 258.217C275.024 255.031 276.738 252.138 278.544 249.538C280.35 246.939 282.213 244.795 284.132 243.107C286.052 241.419 287.956 240.577 289.844 240.581C292.652 240.132 294.691 240.755 295.962 242.451C297.298 244.081 297.507 246.848 296.588 250.752C296.508 255.048 296.603 258.726 296.871 261.786C297.205 264.847 297.541 267.777 297.88 270.577C298.283 273.377 298.62 276.307 298.888 279.367C299.222 282.427 299.349 286.105 299.269 290.402C299.254 291.183 299.144 291.866 298.938 292.451C298.798 292.972 298.012 293.23 296.58 293.227C296.384 293.227 296.127 293.063 295.807 292.737C295.553 292.411 295.428 292.15 295.431 291.955ZM290.97 248.298C290.273 247.255 289.298 247.155 288.046 247.998C286.793 248.841 285.465 250.238 284.061 252.187C282.658 254.137 281.214 256.477 279.731 259.208C278.248 261.938 276.862 264.702 275.573 267.498C274.284 270.294 273.16 272.96 272.201 275.497C271.244 277.968 270.587 280.017 270.231 281.644C270.188 283.987 270.521 285.322 271.231 285.649C271.942 285.911 272.829 285.523 273.89 284.484C274.951 283.445 276.15 281.95 277.489 280.001C278.892 278.051 280.233 275.971 281.511 273.761C282.855 271.551 284.099 269.405 285.244 267.325C286.455 265.245 287.398 263.554 288.073 262.254C288.685 260.889 289.164 259.62 289.511 258.449C289.859 257.278 290.14 256.172 290.354 255.131C290.635 254.025 290.786 252.919 290.807 251.813C290.892 250.706 290.947 249.535 290.97 248.298ZM307.683 252.828C307.026 253.152 306.401 253.509 305.808 253.898C305.281 254.222 304.754 254.547 304.227 254.871C303.701 255.13 303.177 255.324 302.654 255.453C302.13 255.582 301.577 255.581 300.993 255.449C300.603 255.448 300.281 255.22 300.03 254.763C299.779 254.242 299.594 253.688 299.474 253.102C299.291 252.451 299.173 251.832 299.118 251.246C299.065 250.595 299.074 250.107 299.146 249.782L308.62 244.433L309.671 219.439C309.817 218.593 310.344 218.269 311.252 218.466C312.161 218.598 313.101 218.796 314.073 219.059C314.203 219.059 314.397 219.124 314.655 219.255C314.98 219.321 315.206 219.387 315.335 219.452C315.173 221.209 314.974 223.129 314.74 225.212C314.572 227.229 314.404 229.279 314.235 231.362C314.067 233.38 313.933 235.365 313.831 237.317C313.795 239.27 313.86 241.028 314.026 242.591L328.751 238.524C329.012 238.459 329.204 238.655 329.326 239.111C329.514 239.502 329.668 239.991 329.787 240.577C329.971 241.163 330.091 241.749 330.145 242.335C330.199 242.921 330.226 243.214 330.226 243.214L313.494 250.206C313.483 250.791 313.489 252.191 313.513 254.404C313.602 256.618 313.684 259.254 313.757 262.314C313.831 265.309 313.901 268.564 313.966 272.079C314.032 275.529 314.102 278.751 314.177 281.746C314.251 284.741 314.3 287.377 314.322 289.656C314.346 291.869 314.353 293.268 314.342 293.854C314.175 295.807 313.571 296.782 312.53 296.779C311.553 296.777 310.488 296.286 309.334 295.307L307.683 252.828ZM358.908 292.103C358.614 290.41 358.358 288.391 358.141 286.047C357.991 283.638 357.808 281.229 357.592 278.82C357.378 276.346 357.095 274.035 356.745 271.886C356.459 269.737 355.971 267.978 355.28 266.609C351.834 273.371 348.805 278.702 346.193 282.602C343.583 286.436 341.285 289.198 339.301 290.885C337.382 292.508 335.773 293.286 334.472 293.218C333.171 293.15 332.108 292.561 331.282 291.453C330.456 290.344 329.864 288.943 329.505 287.25C329.212 285.492 329.014 283.864 328.912 282.366C328.938 280.934 329.301 278.917 330.001 276.315C330.7 273.713 331.632 270.883 332.796 267.826C333.961 264.705 335.321 261.551 336.878 258.364C338.5 255.179 340.214 252.286 342.02 249.686C343.826 247.087 345.689 244.943 347.609 243.255C349.528 241.567 351.432 240.725 353.32 240.729C356.128 240.28 358.167 240.903 359.438 242.599C360.775 244.229 360.984 246.996 360.065 250.9C359.985 255.196 360.079 258.874 360.348 261.934C360.682 264.995 361.018 267.925 361.356 270.725C361.76 273.525 362.096 276.455 362.365 279.515C362.698 282.575 362.825 286.253 362.745 290.55C362.731 291.331 362.62 292.014 362.414 292.599C362.274 293.12 361.488 293.378 360.056 293.375C359.861 293.374 359.603 293.211 359.284 292.885C359.029 292.559 358.904 292.298 358.908 292.103ZM354.446 248.446C353.749 247.403 352.775 247.303 351.522 248.146C350.269 248.989 348.941 250.386 347.538 252.335C346.134 254.285 344.691 256.625 343.208 259.356C341.724 262.086 340.338 264.85 339.049 267.646C337.76 270.442 336.636 273.108 335.678 275.645C334.72 278.116 334.064 280.165 333.708 281.792C333.664 284.135 333.997 285.47 334.708 285.797C335.419 286.059 336.305 285.671 337.366 284.632C338.427 283.593 339.627 282.098 340.965 280.149C342.369 278.199 343.71 276.119 344.988 273.909C346.331 271.699 347.575 269.553 348.721 267.473C349.931 265.393 350.874 263.702 351.55 262.402C352.161 261.036 352.64 259.768 352.988 258.597C353.335 257.426 353.616 256.32 353.831 255.279C354.112 254.173 354.263 253.067 354.283 251.961C354.369 250.854 354.423 249.683 354.446 248.446ZM371.659 294.378C371.497 292.555 371.381 290.081 371.309 286.957C371.236 283.832 371.169 280.447 371.107 276.801C371.046 273.091 370.954 269.25 370.833 265.279C370.777 261.308 370.684 257.532 370.555 253.951C370.427 250.371 370.227 247.116 369.956 244.186C369.75 241.256 369.5 238.912 369.208 237.154C369.232 235.852 369.539 235.104 370.128 234.91C370.719 234.651 371.47 234.522 372.382 234.525C372.512 234.525 372.805 234.526 373.261 234.527C373.716 234.528 374.041 234.561 374.235 234.627C374.785 236.581 375.096 239.12 375.168 242.245C375.306 245.305 375.374 248.657 375.371 252.303C375.434 255.948 375.461 259.724 375.454 263.63C375.511 267.535 375.67 271.246 375.93 274.762C376.937 269.622 377.765 265.36 378.414 261.976C379.128 258.593 379.764 255.893 380.323 253.877C380.947 251.795 381.497 250.266 381.971 249.291C382.511 248.251 383.077 247.569 383.669 247.245C384.326 246.921 385.012 246.792 385.727 246.859C386.508 246.861 387.42 246.863 388.461 246.865C389.633 246.868 390.569 247.326 391.268 248.239C392.032 249.152 392.596 250.325 392.96 251.758C393.389 253.191 393.686 254.754 393.85 256.447C394.079 258.14 394.276 259.8 394.441 261.428C394.607 262.991 394.776 264.423 394.947 265.725C395.183 267.028 395.557 267.94 396.068 268.462C397.785 263.649 399.258 259.714 400.487 256.658C401.715 253.601 402.769 251.195 403.648 249.439C404.529 247.619 405.302 246.319 405.967 245.539C406.633 244.759 407.227 244.305 407.75 244.176C408.275 243.982 408.731 243.951 409.119 244.082C409.573 244.213 410.027 244.279 410.483 244.28C412.241 244.284 413.558 245.199 414.436 247.023C415.423 249.955 416.087 252.756 416.428 255.425C416.77 258.03 416.951 260.569 416.97 263.043C416.99 265.451 416.947 267.762 416.841 269.975C416.8 272.188 416.825 274.337 416.917 276.42C417.073 278.503 417.393 280.555 417.876 282.574C418.425 284.593 419.364 286.58 420.695 288.536C420.155 289.577 419.621 290.292 419.093 290.681C418.566 291.005 417.847 291.166 416.935 291.164C416.154 291.162 415.475 290.9 414.899 290.378C414.324 289.791 413.848 289.106 413.472 288.324C413.097 287.477 412.788 286.63 412.543 285.783C412.363 284.937 412.182 284.188 411.999 283.536C411.912 274.227 411.621 267.099 411.127 262.15C410.7 257.137 409.935 254.499 408.833 254.236C407.731 253.973 406.258 256.15 404.414 260.768C402.637 265.32 400.388 272.476 397.667 282.234C397.466 282.559 397.169 282.753 396.777 282.817C396.385 282.882 395.962 282.913 395.506 282.912C395.115 282.911 394.692 282.91 394.236 282.909C393.847 282.843 393.456 282.842 393.064 282.906C391.615 273.334 390.375 266.463 389.346 262.295C388.383 258.061 387.339 256.432 386.214 257.405C385.089 258.379 383.787 261.891 382.307 267.942C380.829 273.927 378.914 282.353 376.563 293.218L371.659 294.378ZM428.881 273.714C428.555 273.778 428.065 273.875 427.411 274.003C426.758 274.132 426.074 274.163 425.359 274.096C424.644 274.029 424.029 273.833 423.514 273.506C422.934 273.179 422.651 272.625 422.666 271.844C422.674 271.388 422.778 271.063 422.977 270.868C423.176 270.673 423.507 270.381 423.97 269.992C425.424 268.823 426.656 267.329 427.667 265.509C428.744 263.624 429.725 261.64 430.61 259.559C431.496 257.413 432.414 255.3 433.364 253.219C434.381 251.073 435.523 249.156 436.792 247.466C438.06 245.776 439.616 244.413 441.458 243.376C443.3 242.339 445.555 241.856 448.224 241.927C449.33 241.93 450.562 242.193 451.92 242.717C453.277 243.241 454.534 243.96 455.689 244.874C456.845 245.723 457.802 246.766 458.56 248.005C459.318 249.244 459.684 250.611 459.656 252.109C459.972 252.63 459.632 253.378 458.637 254.352C457.708 255.326 456.418 256.397 454.769 257.565C453.121 258.668 451.243 259.835 449.137 261.067C447.097 262.234 445.123 263.336 443.216 264.373C441.309 265.41 439.631 266.318 438.185 267.096C436.738 267.873 435.783 268.457 435.32 268.847C434.982 269.497 434.708 270.245 434.497 271.09C434.286 271.936 434.108 272.749 433.963 273.53C433.885 274.246 433.807 274.929 433.73 275.58C433.719 276.166 433.71 276.622 433.704 276.947C433.681 278.184 433.591 279.551 433.433 281.048C433.34 282.545 433.378 283.977 433.548 285.344C433.784 286.647 434.317 287.754 435.147 288.668C435.977 289.516 437.402 289.942 439.42 289.947C441.568 289.952 443.596 289.436 445.504 288.399C447.412 287.297 449.195 285.966 450.851 284.408C452.508 282.85 454.004 281.161 455.34 279.341C456.741 277.522 457.977 275.832 459.048 274.272C460.185 272.647 461.187 271.315 462.052 270.276C462.918 269.236 463.644 268.717 464.23 268.719C464.881 268.72 465.562 268.852 466.273 269.114C467.051 269.311 467.432 269.833 467.416 270.679C467.394 271.851 466.88 273.249 465.873 274.874C464.931 276.499 463.662 278.221 462.066 280.04C460.535 281.859 458.743 283.678 456.691 285.496C454.705 287.249 452.69 288.839 450.645 290.266C448.601 291.628 446.594 292.763 444.624 293.67C442.655 294.511 440.922 294.93 439.425 294.927C436.495 294.92 434.295 294.199 432.824 292.763C431.353 291.328 430.312 289.535 429.701 287.386C429.155 285.236 428.872 282.957 428.852 280.549C428.898 278.075 428.908 275.797 428.881 273.714ZM447.341 247.393C446.234 247.39 445.052 247.941 443.794 249.045C442.538 250.083 441.342 251.382 440.206 252.942C439.136 254.437 438.228 255.997 437.482 257.623C436.802 259.183 436.452 260.484 436.433 261.526C437.409 261.528 438.816 261.173 440.652 260.462C442.554 259.685 444.427 258.745 446.271 257.643C448.114 256.541 449.731 255.373 451.121 254.139C452.512 252.906 453.217 251.736 453.238 250.629C453.249 250.043 453.03 249.554 452.581 249.163C452.133 248.771 451.586 248.444 450.939 248.182C450.358 247.921 449.743 247.724 449.095 247.592C448.446 247.461 447.861 247.394 447.341 247.393Z" fill="#4D4D4D"/>
<defs>
<filter id="filter0_d_388_398" x="0" y="0" width="554.287" height="593.834" filterUnits="userSpaceOnUse" color-interpolation-filters="sRGB">
<feFlood flood-opacity="0" result="BackgroundImageFix"/>
<feColorMatrix in="SourceAlpha" type="matrix" values="0 0 0 0 0 0 0 0 0 0 0 0 0 0 0 0 0 0 127 0" result="hardAlpha"/>
<feOffset dx="20" dy="17"/>
<feGaussianBlur stdDeviation="2"/>
<feComposite in2="hardAlpha" operator="out"/>
<feColorMatrix type="matrix" values="0 0 0 0 0 0 0 0 0 0 0 0 0 0 0 0 0 0 0.25 0"/>
<feBlend mode="normal" in2="BackgroundImageFix" result="effect1_dropShadow_388_398"/>
<feBlend mode="normal" in="SourceGraphic" in2="effect1_dropShadow_388_398" result="shape"/>
</filter>
<linearGradient id="paint0_linear_388_398" x1="263.859" y1="571.63" x2="265.576" y2="16.8865" gradientUnits="userSpaceOnUse">
<stop stop-color="#FBFBFB"/>
<stop offset="0.04" stop-color="#FDFDFD"/>
<stop offset="0.12" stop-color="#F9F9F9"/>
<stop offset="0.18" stop-color="#F9F9F9"/>
<stop offset="0.58" stop-color="#F2F2EE"/>
<stop offset="0.79" stop-color="#F2F2EE"/>
<stop offset="0.85" stop-color="#F2F2EE"/>
<stop offset="0.87" stop-color="#F2F2EE"/>
<stop offset="0.92" stop-color="#F2F2EE"/>
<stop offset="0.98" stop-color="#F2F2EE"/>
</linearGradient>
</defs>
</svg>
