<svg width="552" height="591" viewBox="0 0 552 591" fill="none" xmlns="http://www.w3.org/2000/svg">
<g filter="url(#filter0_d_259_173)">
<path d="M527.72 569.556L0.00364235 567.924C4.88586 379.181 8.17881 190.433 3.52577 1.50511L527.702 3.12663C523.5 193.903 524.542 382.664 527.72 569.556Z" fill="url(#paint0_linear_259_173)"/>
<path d="M118.587 209.05C117.924 209.648 116.736 210.566 115.023 211.805C113.368 212.971 111.593 214.25 109.697 215.639C107.802 217.029 106.001 218.376 104.294 219.679C102.58 220.918 101.392 221.836 100.73 222.433C99.4105 223.694 98.5598 225.065 98.1773 226.549C97.7948 228.032 97.6835 229.617 97.8432 231.302C97.9968 232.922 98.3214 234.622 98.817 236.401C99.3064 238.114 99.7018 239.872 100.003 241.672C100.089 242.579 99.878 243.454 99.3694 244.297C98.8608 245.14 98.1535 245.611 97.2477 245.712C96.8594 245.755 96.4296 245.705 95.9583 245.561C95.4808 245.352 95.2205 245.02 95.1775 244.567L87.0375 182.497C87.0006 182.108 87.0809 181.575 87.2783 180.898C87.5403 180.214 87.7654 179.829 87.9533 179.742C88.1475 179.721 88.4093 179.724 88.739 179.753C89.1334 179.775 89.5339 179.861 89.9406 180.012C90.3411 180.099 90.7123 180.221 91.0543 180.38C91.4548 180.466 91.7259 180.567 91.8676 180.682C92.3722 183.246 92.8166 186.21 93.2008 189.573C93.585 192.936 93.9723 196.331 94.3626 199.759C94.8177 203.18 95.2959 206.5 95.7972 209.719C96.3571 212.866 97.0327 215.509 97.8239 217.648C100.496 216.172 103.012 214.778 105.372 213.468C107.733 212.157 109.754 210.721 111.437 209.158C113.12 207.595 114.387 205.784 115.238 203.725C116.082 201.6 116.331 199.051 115.984 196.077C115.83 194.457 115.663 193.034 115.481 191.81C115.3 190.586 115.057 189.401 114.752 188.256C114.441 187.046 114.027 185.782 113.51 184.464C113.051 183.074 112.477 181.501 111.787 179.744C111.547 178.591 111.671 177.824 112.158 177.443C112.644 177.061 113.244 176.831 113.956 176.752C114.797 176.658 115.462 176.78 115.952 177.119C116.442 177.457 116.847 177.936 117.167 178.556C117.552 179.168 117.814 179.859 117.952 180.63C118.084 181.336 118.214 182.009 118.34 182.65C118.568 183.672 118.877 185.21 119.268 187.262C119.658 189.315 120.077 191.659 120.523 194.295C121.027 196.858 121.547 199.584 122.083 202.472C122.683 205.353 123.235 208.075 123.739 210.639C124.244 213.202 124.659 215.514 124.985 217.574C125.376 219.626 125.685 221.164 125.913 222.186C126.341 224.628 126.83 227.029 127.381 229.391C127.932 231.754 128.327 234.199 128.566 236.726L128.714 238.282C128.763 238.8 128.747 239.326 128.667 239.859C128.646 240.32 128.459 240.766 128.108 241.198C127.815 241.558 127.289 241.879 126.531 242.16C125.287 241.447 124.518 240.582 124.226 239.567C123.933 238.552 123.664 237.435 123.418 236.218C123.286 235.513 123.12 234.45 122.92 233.032C122.714 231.548 122.431 229.942 122.071 228.214C121.769 226.413 121.429 224.552 121.051 222.629C120.731 220.634 120.391 218.773 120.031 217.044C119.73 215.244 119.447 213.638 119.182 212.226C118.917 210.815 118.719 209.756 118.587 209.05ZM162.203 235.637C161.72 233.988 161.238 232.011 160.758 229.707C160.337 227.33 159.883 224.957 159.397 222.588C158.904 220.154 158.363 217.889 157.772 215.793C157.246 213.69 156.562 211.998 155.721 210.716C153.06 217.824 150.652 223.462 148.497 227.632C146.337 231.737 144.365 234.74 142.584 236.641C140.861 238.47 139.35 239.424 138.049 239.503C136.749 239.582 135.626 239.118 134.68 238.109C133.735 237.101 132.988 235.776 132.44 234.134C131.951 232.42 131.571 230.825 131.3 229.348C131.165 227.923 131.298 225.877 131.699 223.213C132.1 220.548 132.707 217.632 133.518 214.463C134.323 211.23 135.319 207.942 136.506 204.601C137.758 201.252 139.135 198.185 140.636 195.398C142.137 192.611 143.746 190.27 145.463 188.377C147.179 186.483 148.976 185.431 150.852 185.223C153.592 184.459 155.688 184.848 157.142 186.39C158.655 187.859 159.175 190.585 158.702 194.567C159.108 198.845 159.616 202.489 160.229 205.499C160.906 208.502 161.57 211.375 162.223 214.119C162.94 216.856 163.605 219.729 164.217 222.739C164.894 225.742 165.435 229.383 165.841 233.661C165.915 234.438 165.882 235.13 165.743 235.735C165.663 236.267 164.911 236.613 163.488 236.771C163.293 236.793 163.019 236.66 162.665 236.372C162.375 236.076 162.222 235.832 162.203 235.637ZM152.842 192.763C152.032 191.805 151.052 191.816 149.903 192.795C148.753 193.774 147.591 195.312 146.417 197.407C145.242 199.503 144.072 201.991 142.907 204.871C141.742 207.752 140.676 210.654 139.711 213.578C138.746 216.501 137.93 219.278 137.264 221.906C136.591 224.47 136.17 226.58 136 228.236C136.222 230.569 136.703 231.859 137.446 232.103C138.182 232.283 139.019 231.797 139.956 230.645C140.893 229.493 141.916 227.873 143.026 225.784C144.2 223.689 145.298 221.471 146.318 219.13C147.404 216.783 148.398 214.511 149.301 212.314C150.269 210.111 151.015 208.325 151.54 206.957C151.993 205.531 152.326 204.217 152.539 203.014C152.752 201.811 152.906 200.681 153.002 199.622C153.156 198.491 153.181 197.375 153.077 196.273C153.037 195.164 152.959 193.994 152.842 192.763ZM172.763 236.329C171.954 231.245 171.309 225.815 170.827 220.039C170.409 214.256 169.981 208.016 169.543 201.319C169.104 194.622 168.58 187.377 167.973 179.585C167.423 171.721 166.645 163.162 165.637 153.908C166.348 153.829 167.089 153.713 167.86 153.562C168.624 153.346 169.3 153.238 169.889 153.238C170.542 153.231 171.078 153.368 171.497 153.649C171.98 153.923 172.262 154.481 172.342 155.323C172.569 157.721 172.737 160.519 172.844 163.717C173.009 166.842 173.141 170.299 173.238 174.087C173.33 177.81 173.481 181.821 173.692 186.12C173.968 190.413 174.331 194.924 174.779 199.656C176.761 196.422 178.634 193.758 180.397 191.662C182.16 189.567 183.863 187.871 185.505 186.575C187.142 185.214 188.789 184.31 190.446 183.864C192.098 183.353 193.739 183.072 195.369 183.021C197.245 182.813 198.815 183.162 200.078 184.07C201.406 184.97 202.467 186.162 203.261 187.645C204.056 189.129 204.675 190.828 205.118 192.744C205.555 194.595 205.859 196.428 206.031 198.242C206.154 199.539 206.189 200.943 206.136 202.455C206.142 203.896 205.937 205.523 205.52 207.338C205.104 209.153 204.37 211.068 203.319 213.084C202.326 215.029 200.861 217.157 198.922 219.468C196.983 221.78 194.468 224.221 191.377 226.792C188.351 229.355 184.619 232.063 180.181 234.914C178.672 235.541 177.437 235.973 176.479 236.21C175.579 236.376 174.838 236.491 174.256 236.556C173.732 236.549 173.338 236.527 173.073 236.491C172.873 236.448 172.769 236.394 172.763 236.329ZM176.384 230.032C176.689 229.801 177.523 229.283 178.885 228.476C180.241 227.605 181.837 226.51 183.674 225.193C185.51 223.875 187.487 222.312 189.604 220.505C191.722 218.697 193.62 216.652 195.3 214.369C197.045 212.079 198.473 209.563 199.586 206.819C200.699 204.075 201.238 201.133 201.202 197.994C201.116 197.086 200.894 196.128 200.537 195.12C200.18 194.112 199.667 193.187 198.999 192.344C198.395 191.494 197.645 190.824 196.749 190.335C195.846 189.78 194.812 189.568 193.648 189.697C191.254 189.963 189.05 190.863 187.038 192.397C185.09 193.924 183.335 195.757 181.772 197.895C180.21 200.034 178.856 202.313 177.713 204.733C176.563 207.088 175.656 209.252 174.993 211.225L176.384 230.032ZM216.611 230.174C216.211 225.961 215.693 221.532 215.057 216.887C214.485 212.235 213.878 207.554 213.235 202.844C212.651 198.063 212.173 193.367 211.802 188.758C211.43 184.149 211.313 179.807 211.449 175.731C211.573 175.652 211.861 175.587 212.314 175.536C212.825 175.414 213.178 175.342 213.372 175.32C214.278 175.22 215.005 175.303 215.554 175.569C216.16 175.764 216.51 176.347 216.602 177.319C216.965 181.143 217.329 185.327 217.694 189.871C218.118 194.343 218.519 198.916 218.896 203.59C219.333 208.192 219.766 212.761 220.196 217.298C220.626 221.835 221.081 225.944 221.561 229.624C221.73 230.718 221.571 231.456 221.084 231.838C220.668 232.277 220.104 232.537 219.392 232.616C218.616 232.702 217.95 232.58 217.396 232.248C216.847 231.982 216.586 231.29 216.611 230.174ZM207.876 160.802C207.803 160.024 208.012 159.477 208.505 159.16C208.999 158.843 209.569 158.649 210.216 158.577C211.51 158.433 212.358 158.764 212.762 159.571C213.165 160.377 213.419 161.332 213.524 162.433C213.203 163.19 212.767 163.762 212.215 164.151C211.657 164.475 211.049 164.608 210.39 164.551C209.789 164.421 209.231 164.057 208.717 163.459C208.267 162.854 207.987 161.969 207.876 160.802ZM230.01 225.638C230.18 222.606 230.118 218.847 229.824 214.361C229.594 209.867 229.207 205.096 228.663 200.048C228.184 194.992 227.592 189.785 226.888 184.427C226.184 179.07 225.443 174.01 224.665 169.25C223.88 164.425 223.08 160.126 222.265 156.352C221.514 152.571 220.808 149.604 220.146 147.451C220.691 146.997 221.149 146.652 221.519 146.414C221.947 146.105 222.453 145.917 223.035 145.853C223.488 145.802 223.885 145.856 224.227 146.015C224.563 146.108 224.853 146.404 225.096 146.901C227.594 159.46 229.681 172.164 231.357 185.011C233.097 197.851 234.702 210.641 236.171 223.381C236.227 223.964 236.303 224.774 236.402 225.811C236.494 226.783 236.511 227.306 236.452 227.378C235.589 227.932 234.802 228.249 234.09 228.328C233.372 228.342 232.707 228.22 232.094 227.961C231.475 227.637 230.982 227.266 230.615 226.848C230.249 226.43 230.047 226.027 230.01 225.638ZM243.496 227.184C243.096 222.971 242.578 218.542 241.942 213.897C241.37 209.245 240.763 204.564 240.12 199.854C239.536 195.072 239.058 190.377 238.687 185.768C238.315 181.159 238.198 176.816 238.334 172.74C238.458 172.661 238.746 172.596 239.199 172.546C239.71 172.423 240.063 172.351 240.257 172.33C241.163 172.229 241.89 172.312 242.438 172.578C243.045 172.773 243.395 173.356 243.487 174.328C243.85 178.152 244.214 182.336 244.579 186.881C245.003 191.353 245.404 195.926 245.781 200.599C246.218 205.201 246.651 209.771 247.081 214.308C247.511 218.844 247.966 222.953 248.445 226.633C248.615 227.728 248.456 228.466 247.969 228.847C247.553 229.287 246.989 229.546 246.277 229.625C245.501 229.711 244.835 229.589 244.281 229.258C243.732 228.991 243.471 228.3 243.496 227.184ZM234.761 157.811C234.688 157.034 234.897 156.486 235.39 156.169C235.883 155.853 236.454 155.658 237.101 155.586C238.395 155.442 239.243 155.774 239.647 156.58C240.05 157.387 240.304 158.341 240.409 159.443C240.088 160.199 239.652 160.771 239.1 161.16C238.542 161.484 237.934 161.617 237.275 161.56C236.674 161.43 236.116 161.066 235.602 160.469C235.152 159.864 234.872 158.978 234.761 157.811ZM274.896 207.677C274.39 209.239 273.712 211.05 272.861 213.11C272.075 215.162 271.085 217.139 269.892 219.04C268.764 220.934 267.385 222.594 265.754 224.02C264.124 225.446 262.241 226.277 260.106 226.515C259.135 226.623 258.35 226.612 257.749 226.482C257.207 226.281 256.688 225.978 256.192 225.575C255.76 225.164 255.32 224.657 254.87 224.052C254.485 223.439 253.997 222.773 253.406 222.053C252.911 218.899 252.459 215.51 252.05 211.888C251.7 208.194 251.547 204.51 251.591 200.837C251.629 197.1 251.947 193.56 252.546 190.219C253.209 186.87 254.274 183.968 255.742 181.513C257.274 179.05 259.288 177.188 261.784 175.928C264.28 174.668 267.412 174.254 271.18 174.686C271.202 172.85 271.004 170.416 270.586 167.384C270.168 164.352 269.669 161.166 269.091 157.824C268.513 154.483 267.947 151.271 267.393 148.188C266.833 145.041 266.425 142.467 266.17 140.465C266.115 139.881 266.334 139.431 266.827 139.114C267.379 138.726 267.975 138.463 268.616 138.326C269.257 138.189 269.871 138.121 270.46 138.121C271.113 138.114 271.543 138.164 271.749 138.272C272.376 146.259 273.087 154.105 273.883 161.81C274.672 169.451 275.462 177.092 276.252 184.733C277.1 192.302 277.945 199.838 278.787 207.342C279.629 214.846 280.407 222.357 281.12 229.875C281.187 230.588 281.193 231.341 281.138 232.133C281.153 232.983 280.643 233.465 279.607 233.58C279.219 233.624 278.819 233.537 278.406 233.321C277.999 233.17 277.71 232.875 277.537 232.435L274.896 207.677ZM268.05 179.947C266.031 180.04 264.232 181.059 262.651 183.004C261.128 184.876 259.849 187.245 258.813 190.111C257.841 192.97 257.124 196.096 256.661 199.487C256.192 202.814 256.005 206.012 256.099 209.08C256.252 212.076 256.698 214.711 257.437 216.987C258.241 219.256 259.394 220.732 260.898 221.416C262.321 221.258 263.595 220.559 264.72 219.321C265.839 218.017 266.833 216.433 267.703 214.568C268.572 212.703 269.294 210.658 269.867 208.432C270.435 206.142 270.882 203.964 271.209 201.897C271.601 199.823 271.85 197.962 271.955 196.312C272.119 194.591 272.161 193.309 272.081 192.467C272.019 191.819 271.953 190.778 271.883 189.345C271.812 187.912 271.645 186.49 271.38 185.078C271.116 183.667 270.705 182.435 270.147 181.384C269.655 180.325 268.955 179.846 268.05 179.947ZM314.098 218.74C313.615 217.091 313.133 215.114 312.653 212.81C312.232 210.433 311.778 208.06 311.292 205.691C310.8 203.257 310.258 200.992 309.667 198.896C309.141 196.793 308.457 195.101 307.616 193.819C304.955 200.927 302.547 206.565 300.393 210.735C298.232 214.84 296.26 217.843 294.479 219.744C292.756 221.573 291.245 222.527 289.944 222.606C288.644 222.685 287.521 222.221 286.576 221.212C285.63 220.204 284.883 218.879 284.335 217.237C283.846 215.523 283.466 213.928 283.195 212.452C283.06 211.026 283.193 208.98 283.594 206.316C283.995 203.651 284.602 200.735 285.413 197.566C286.218 194.333 287.214 191.045 288.401 187.704C289.653 184.355 291.03 181.288 292.531 178.501C294.032 175.714 295.641 173.373 297.358 171.48C299.075 169.586 300.871 168.534 302.748 168.326C305.487 167.562 307.583 167.951 309.037 169.493C310.55 170.962 311.07 173.688 310.597 177.67C311.003 181.948 311.512 185.592 312.124 188.602C312.801 191.605 313.466 194.478 314.118 197.222C314.835 199.959 315.5 202.832 316.112 205.842C316.789 208.846 317.33 212.486 317.736 216.764C317.81 217.541 317.777 218.233 317.638 218.838C317.558 219.371 316.806 219.716 315.383 219.875C315.189 219.896 314.914 219.763 314.56 219.475C314.271 219.179 314.117 218.935 314.098 218.74ZM304.737 175.866C303.927 174.908 302.948 174.919 301.798 175.898C300.648 176.877 299.486 178.415 298.312 180.51C297.138 182.606 295.968 185.094 294.802 187.974C293.637 190.855 292.571 193.757 291.606 196.681C290.641 199.605 289.825 202.381 289.159 205.009C288.487 207.573 288.065 209.683 287.895 211.339C288.117 213.673 288.599 214.962 289.341 215.206C290.077 215.387 290.914 214.901 291.851 213.748C292.788 212.596 293.811 210.976 294.921 208.888C296.096 206.792 297.193 204.574 298.214 202.234C299.299 199.886 300.293 197.614 301.196 195.418C302.164 193.214 302.911 191.428 303.435 190.06C303.888 188.634 304.221 187.32 304.434 186.117C304.647 184.914 304.801 183.784 304.897 182.725C305.052 181.595 305.077 180.478 304.972 179.376C304.932 178.267 304.854 177.097 304.737 175.866ZM342.739 200.13C342.233 201.692 341.555 203.503 340.704 205.563C339.918 207.615 338.928 209.592 337.735 211.493C336.607 213.387 335.228 215.047 333.598 216.473C331.967 217.899 330.084 218.73 327.949 218.968C326.979 219.076 326.193 219.065 325.592 218.935C325.05 218.734 324.531 218.431 324.035 218.028C323.604 217.617 323.163 217.11 322.714 216.505C322.329 215.892 321.84 215.226 321.249 214.506C320.754 211.352 320.302 207.964 319.893 204.341C319.543 200.647 319.39 196.963 319.434 193.29C319.472 189.553 319.79 186.013 320.389 182.672C321.052 179.323 322.118 176.421 323.585 173.966C325.117 171.503 327.131 169.641 329.627 168.381C332.123 167.121 335.255 166.707 339.023 167.139C339.045 165.303 338.847 162.869 338.429 159.837C338.011 156.805 337.513 153.619 336.934 150.277C336.356 146.936 335.79 143.724 335.236 140.641C334.676 137.494 334.269 134.92 334.014 132.918C333.958 132.334 334.177 131.884 334.67 131.568C335.222 131.179 335.818 130.916 336.459 130.779C337.1 130.642 337.715 130.574 338.303 130.574C338.956 130.567 339.386 130.617 339.592 130.725C340.219 138.712 340.93 146.558 341.726 154.263C342.516 161.904 343.305 169.545 344.095 177.186C344.943 184.755 345.788 192.291 346.631 199.795C347.473 207.299 348.25 214.81 348.963 222.328C349.03 223.041 349.036 223.794 348.981 224.586C348.996 225.436 348.486 225.918 347.451 226.034C347.062 226.077 346.662 225.99 346.249 225.774C345.842 225.623 345.553 225.328 345.38 224.888L342.739 200.13ZM335.893 172.4C333.875 172.493 332.075 173.512 330.494 175.457C328.971 177.329 327.692 179.698 326.656 182.564C325.685 185.423 324.967 188.549 324.504 191.941C324.035 195.268 323.848 198.465 323.942 201.533C324.096 204.529 324.542 207.164 325.281 209.44C326.084 211.709 327.238 213.185 328.741 213.869C330.164 213.711 331.439 213.012 332.564 211.774C333.682 210.47 334.676 208.886 335.546 207.021C336.415 205.156 337.137 203.111 337.711 200.885C338.278 198.595 338.725 196.417 339.053 194.35C339.444 192.276 339.693 190.415 339.798 188.766C339.962 187.044 340.004 185.763 339.924 184.92C339.863 184.272 339.797 183.231 339.726 181.798C339.656 180.365 339.488 178.943 339.224 177.531C338.959 176.12 338.548 174.888 337.991 173.837C337.498 172.778 336.799 172.299 335.893 172.4ZM355.441 195.475C355.123 195.575 354.647 195.727 354.012 195.928C353.378 196.13 352.701 196.238 351.983 196.252C351.266 196.266 350.632 196.14 350.084 195.874C349.471 195.615 349.128 195.096 349.054 194.318C349.011 193.865 349.077 193.53 349.253 193.314C349.429 193.098 349.724 192.77 350.14 192.331C351.453 191.006 352.509 189.382 353.308 187.459C354.165 185.464 354.916 183.383 355.56 181.216C356.199 178.983 356.872 176.78 357.582 174.605C358.349 172.358 359.268 170.324 360.338 168.502C361.407 166.68 362.799 165.15 364.512 163.911C366.226 162.672 368.412 161.938 371.071 161.708C372.171 161.585 373.425 161.708 374.833 162.075C376.241 162.443 377.57 163.015 378.821 163.793C380.066 164.506 381.135 165.435 382.028 166.58C382.921 167.725 383.438 169.043 383.58 170.534C383.952 171.016 383.699 171.798 382.821 172.878C382.007 173.951 380.847 175.161 379.34 176.507C377.827 177.789 376.093 179.161 374.139 180.623C372.244 182.012 370.407 183.33 368.629 184.576C366.851 185.822 365.287 186.913 363.937 187.849C362.588 188.785 361.705 189.472 361.289 189.912C361.026 190.596 360.838 191.37 360.724 192.234C360.61 193.098 360.525 193.927 360.469 194.719C360.472 195.439 360.472 196.127 360.469 196.782C360.524 197.365 360.567 197.819 360.598 198.143C360.714 199.374 360.779 200.743 360.791 202.248C360.867 203.746 361.067 205.164 361.39 206.504C361.772 207.771 362.426 208.812 363.354 209.626C364.275 210.375 365.738 210.638 367.744 210.415C369.879 210.177 371.836 209.436 373.614 208.19C375.386 206.879 377.007 205.356 378.477 203.621C379.947 201.885 381.244 200.038 382.366 198.079C383.552 196.113 384.59 194.295 385.478 192.624C386.424 190.882 387.269 189.445 388.011 188.315C388.754 187.184 389.417 186.586 389.999 186.521C390.646 186.45 391.338 186.504 392.074 186.684C392.869 186.792 393.307 187.267 393.386 188.11C393.497 189.276 393.144 190.724 392.327 192.452C391.575 194.173 390.508 196.027 389.127 198.015C387.811 199.995 386.236 202.004 384.402 204.042C382.627 206.008 380.804 207.816 378.933 209.465C377.056 211.049 375.19 212.403 373.335 213.526C371.474 214.585 369.799 215.197 368.311 215.362C365.399 215.686 363.132 215.218 361.508 213.957C359.885 212.697 358.648 211.034 357.799 208.967C357.013 206.893 356.475 204.66 356.183 202.269C355.949 199.806 355.702 197.541 355.441 195.475ZM370.811 167.238C369.711 167.361 368.598 168.041 367.473 169.28C366.342 170.454 365.301 171.88 364.348 173.557C363.454 175.163 362.728 176.816 362.17 178.515C361.67 180.143 361.47 181.475 361.568 182.512C362.538 182.404 363.896 181.893 365.64 180.979C367.443 179.992 369.198 178.847 370.905 177.544C372.612 176.24 374.087 174.897 375.329 173.515C376.571 172.132 377.14 170.89 377.035 169.788C376.98 169.205 376.708 168.744 376.218 168.405C375.728 168.067 375.147 167.804 374.476 167.617C373.869 167.422 373.236 167.296 372.576 167.239C371.917 167.181 371.328 167.181 370.811 167.238ZM408.054 209.369C408.06 209.434 408.703 208.97 409.982 207.976C411.325 206.975 412.871 205.689 414.618 204.12C416.424 202.478 418.254 200.735 420.106 198.892C421.952 196.983 423.451 195.212 424.604 193.577C425.757 191.943 426.316 190.603 426.283 189.559C426.308 188.443 425.367 187.827 423.46 187.712C421.099 187.647 419.129 187.899 417.548 188.467C416.032 189.029 414.652 189.641 413.407 190.304C412.162 190.966 410.979 191.589 409.857 192.172C408.8 192.748 407.586 193.047 406.215 193.069C403.368 193.385 401.311 192.73 400.045 191.102C398.838 189.403 398.09 187.03 397.801 183.983C397.512 180.937 397.918 177.977 399.019 175.104C400.114 172.166 401.633 169.573 403.578 167.327C405.523 165.08 407.831 163.219 410.503 161.742C413.169 160.201 415.957 159.269 418.869 158.945C420.034 158.816 421.046 158.801 421.905 158.902C422.765 159.003 423.256 159.701 423.379 160.998C423.465 161.905 423.16 162.823 422.463 163.752C421.761 164.616 420.924 165.102 419.953 165.21C419.889 165.218 419.724 165.203 419.459 165.167C419.188 165.066 418.914 164.933 418.636 164.767C418.359 164.602 418.088 164.501 417.823 164.465C417.552 164.364 417.384 164.317 417.319 164.324C415.193 163.971 413.215 164.486 411.385 165.869C409.554 167.251 407.958 169.034 406.595 171.216C405.291 173.326 404.297 175.598 403.612 178.032C402.921 180.401 402.662 182.493 402.834 184.308C402.902 185.021 403.086 185.59 403.388 186.015C403.749 186.367 404.164 186.616 404.636 186.76C405.172 186.897 405.734 186.965 406.323 186.965C406.97 186.893 407.617 186.821 408.264 186.749C409.558 186.605 410.834 186.267 412.091 185.734C413.413 185.194 414.664 184.596 415.844 183.941C417.089 183.279 418.34 182.681 419.597 182.148C420.919 181.608 422.292 181.259 423.716 181.101C424.363 181.029 425.093 181.144 425.906 181.446C426.713 181.684 427.474 182.123 428.189 182.764C428.897 183.341 429.521 184.057 430.06 184.914C430.593 185.706 430.941 186.617 431.104 187.647C431.578 188.511 431.562 189.725 431.057 191.288C430.616 192.843 429.86 194.532 428.791 196.354C427.721 198.176 426.396 200.059 424.814 202.003C423.227 203.882 421.628 205.632 420.016 207.253C418.398 208.808 416.787 210.101 415.185 211.13C413.589 212.225 412.205 212.804 411.034 212.869C409.74 213.013 408.927 212.711 408.594 211.962C408.326 211.206 408.146 210.341 408.054 209.369ZM128.765 342.283C126.694 342.513 124.61 342.942 122.511 343.568C120.478 344.187 118.45 344.871 116.429 345.62C114.401 346.304 112.371 346.956 110.337 347.575C108.303 348.194 106.219 348.622 104.083 348.86C103.436 348.932 102.751 348.943 102.027 348.892C101.361 348.77 100.983 348.222 100.89 347.25C100.829 346.602 101.026 345.925 101.483 345.219C101.997 344.442 102.575 343.985 103.216 343.848L128.868 337.163C128.908 336.896 128.968 336.496 129.049 335.964C129.123 335.366 129.232 334.797 129.377 334.257C129.581 333.645 129.858 333.123 130.21 332.691C130.555 332.194 130.986 331.916 131.504 331.859C132.28 331.772 132.913 331.899 133.403 332.237C133.893 332.576 134.324 332.986 134.697 333.469C135.063 333.886 135.395 334.275 135.69 334.635C135.986 334.995 136.328 335.154 136.716 335.111L137.493 335.024C138.133 334.887 139.16 334.675 140.571 334.387C141.976 334.034 143.575 333.66 145.368 333.264C147.226 332.861 149.181 332.447 151.234 332.022C153.28 331.532 155.235 331.118 157.099 330.78C158.957 330.377 160.591 330.031 162.003 329.743C163.408 329.391 164.428 329.113 165.062 328.912C165.257 328.89 165.709 328.84 166.421 328.761C167.192 328.609 167.738 328.516 168.062 328.48C168.179 329.711 167.598 330.824 166.319 331.818C165.098 332.739 163.481 333.607 161.465 334.421C159.509 335.162 157.284 335.836 154.791 336.44C152.357 336.973 149.952 337.47 147.576 337.931C145.265 338.384 143.113 338.787 141.119 339.14C139.191 339.486 137.718 339.813 136.701 340.123C136.878 344.753 137.43 349.539 138.356 354.479C139.347 359.412 140.438 364.367 141.629 369.343C142.884 374.312 144.072 379.256 145.192 384.175C146.313 389.093 147.088 393.821 147.518 398.358C147.863 399.237 148.027 399.939 148.012 400.465C148.061 400.983 147.933 401.358 147.628 401.588C147.323 401.818 146.847 401.97 146.2 402.042C145.553 402.114 144.773 402.168 143.861 402.204C142.993 399.942 142.152 397.285 141.34 394.231C140.586 391.106 139.846 387.782 139.12 384.261C138.387 380.674 137.646 376.991 136.895 373.21C136.209 369.422 135.526 365.666 134.846 361.943C134.166 358.22 133.469 354.662 132.756 351.27C132.042 347.879 131.294 344.818 130.512 342.088L128.765 342.283ZM167.882 378.31C167.564 378.411 167.088 378.562 166.454 378.764C165.819 378.966 165.142 379.074 164.425 379.088C163.707 379.102 163.074 378.976 162.525 378.71C161.912 378.45 161.569 377.932 161.495 377.154C161.452 376.7 161.518 376.366 161.694 376.15C161.87 375.934 162.166 375.606 162.582 375.167C163.895 373.842 164.95 372.218 165.749 370.295C166.606 368.3 167.357 366.219 168.001 364.051C168.64 361.819 169.314 359.615 170.023 357.441C170.791 355.194 171.709 353.159 172.779 351.338C173.849 349.516 175.24 347.985 176.954 346.747C178.667 345.508 180.853 344.774 183.512 344.544C184.612 344.421 185.866 344.544 187.274 344.911C188.682 345.278 190.012 345.851 191.262 346.629C192.507 347.342 193.576 348.271 194.469 349.416C195.362 350.561 195.879 351.879 196.021 353.37C196.393 353.852 196.14 354.634 195.262 355.714C194.448 356.787 193.288 357.996 191.781 359.343C190.268 360.625 188.534 361.997 186.58 363.458C184.685 364.848 182.848 366.166 181.07 367.412C179.292 368.657 177.728 369.748 176.378 370.685C175.029 371.621 174.146 372.308 173.73 372.748C173.468 373.432 173.279 374.206 173.165 375.07C173.051 375.934 172.966 376.762 172.91 377.555C172.913 378.275 172.913 378.962 172.91 379.618C172.965 380.201 173.008 380.655 173.039 380.979C173.156 382.21 173.22 383.579 173.232 385.084C173.308 386.582 173.508 388 173.831 389.34C174.213 390.607 174.868 391.648 175.795 392.462C176.716 393.211 178.179 393.474 180.185 393.251C182.32 393.013 184.277 392.271 186.055 391.026C187.827 389.715 189.448 388.192 190.918 386.457C192.389 384.721 193.685 382.874 194.807 380.915C195.994 378.949 197.031 377.131 197.919 375.46C198.865 373.718 199.71 372.281 200.453 371.15C201.195 370.02 201.858 369.422 202.44 369.357C203.087 369.285 203.779 369.339 204.515 369.519C205.31 369.628 205.748 370.103 205.828 370.945C205.938 372.112 205.585 373.56 204.768 375.288C204.016 377.009 202.949 378.863 201.568 380.851C200.252 382.831 198.677 384.84 196.843 386.878C195.068 388.844 193.245 390.652 191.374 392.301C189.498 393.885 187.632 395.239 185.776 396.362C183.915 397.42 182.24 398.032 180.752 398.198C177.84 398.522 175.573 398.054 173.949 396.793C172.326 395.533 171.09 393.869 170.24 391.802C169.455 389.728 168.916 387.496 168.624 385.105C168.39 382.642 168.143 380.377 167.882 378.31ZM183.252 350.074C182.152 350.197 181.04 350.877 179.915 352.116C178.783 353.289 177.742 354.715 176.789 356.393C175.895 357.999 175.169 359.652 174.611 361.351C174.111 362.979 173.911 364.311 174.009 365.348C174.98 365.24 176.337 364.729 178.081 363.814C179.884 362.828 181.639 361.683 183.346 360.38C185.053 359.076 186.528 357.733 187.77 356.351C189.012 354.968 189.581 353.726 189.477 352.624C189.421 352.041 189.149 351.58 188.659 351.241C188.169 350.903 187.588 350.64 186.917 350.453C186.31 350.258 185.677 350.132 185.017 350.074C184.358 350.017 183.77 350.017 183.252 350.074ZM210.846 372.156C210.819 369.801 210.774 367.251 210.71 364.508C210.64 361.699 210.67 358.912 210.8 356.147C210.995 353.374 211.299 350.72 211.713 348.185C212.191 345.643 212.891 343.371 213.813 341.369C214.793 339.295 216.072 337.614 217.65 336.325C219.222 334.971 221.208 334.194 223.608 333.992C225.226 333.812 226.52 334.356 227.49 335.623C228.525 336.884 229.296 338.468 229.804 340.377C230.376 342.278 230.761 344.265 230.958 346.339C231.213 348.341 231.402 349.991 231.525 351.287C230.231 351.431 229.111 350.999 228.165 349.99C227.213 348.917 226.44 347.661 225.846 346.22C225.252 344.78 224.79 343.358 224.461 341.953L223.902 339.166C223.838 339.174 223.708 339.188 223.514 339.21C223.379 339.159 223.278 339.137 223.214 339.145C222.114 339.267 221.137 339.998 220.283 341.337C219.494 342.67 218.771 344.355 218.114 346.393C217.516 348.359 217.039 350.573 216.684 353.036C216.323 355.434 216.056 357.789 215.883 360.101C215.709 362.412 215.586 364.555 215.511 366.528C215.495 368.429 215.536 369.898 215.635 370.935C215.665 372.635 215.84 374.482 216.16 376.477C216.48 378.472 217.046 380.308 217.859 381.986C218.672 383.664 219.722 385.086 221.01 386.253C222.291 387.355 223.924 388.025 225.908 388.262C228.302 387.996 230.213 387.456 231.64 386.642C233.066 385.829 234.181 384.821 234.982 383.618C235.848 382.408 236.475 381.094 236.864 379.675C237.253 378.257 237.606 376.809 237.924 375.333C238.3 373.785 238.679 372.269 239.062 370.785C239.444 369.302 240.062 367.89 240.916 366.551C241.674 366.27 242.227 366.241 242.575 366.465C242.982 366.616 243.269 366.879 243.435 367.253C243.601 367.628 243.709 368.074 243.758 368.593L243.859 369.662C244.117 372.384 243.913 375.06 243.247 377.688C242.581 380.317 241.469 382.733 239.913 384.936C238.35 387.075 236.398 388.897 234.056 390.402C231.772 391.835 229.078 392.724 225.972 393.069C223.384 393.357 221.139 392.788 219.239 391.362C217.396 389.864 215.88 388.003 214.688 385.777C213.561 383.545 212.683 381.186 212.055 378.702C211.421 376.152 211.018 373.97 210.846 372.156ZM255.746 388.48C254.204 379.81 252.728 371.132 251.316 362.447C249.963 353.69 248.514 344.616 246.97 335.225C246.823 333.669 247.59 332.798 249.272 332.611L250.049 332.524C250.243 332.503 250.494 332.737 250.802 333.227C251.11 333.716 251.461 334.66 251.855 336.057C252.308 337.382 252.831 339.452 253.425 342.268C254.077 345.012 254.877 348.624 255.825 353.103C256.773 357.582 257.893 363.189 259.185 369.922C260.126 365.364 260.788 360.967 261.171 356.733C261.554 352.498 262.201 348.628 263.111 345.121C264.015 341.549 265.443 338.344 267.398 335.507C269.417 332.662 272.471 330.39 276.56 328.691C278.926 328.821 280.938 330.038 282.595 332.343C284.245 334.582 285.66 337.438 286.839 340.909C288.019 344.38 288.97 348.204 289.692 352.381C290.409 356.493 290.981 360.458 291.408 364.274C291.836 368.091 292.194 371.523 292.482 374.569C292.765 377.55 293.033 379.682 293.285 380.964C293.14 381.504 292.892 381.99 292.54 382.422C292.189 382.854 291.764 383.196 291.264 383.448C290.824 383.628 290.374 383.711 289.915 383.697C289.45 383.617 288.995 383.308 288.552 382.768C288.484 382.055 288.281 380.604 287.943 378.414C287.605 376.225 287.2 373.683 286.73 370.788C286.253 367.828 285.728 364.71 285.156 361.433C284.643 358.084 284.15 354.963 283.68 352.068C283.268 349.1 282.893 346.522 282.554 344.333C282.216 342.144 281.981 340.696 281.848 339.991C280.262 337.744 278.774 336.534 277.385 336.361C276.06 336.181 274.774 336.749 273.525 338.067C272.342 339.378 271.249 341.301 270.247 343.835C269.245 346.37 268.338 349.222 267.527 352.391C266.71 355.494 265.972 358.753 265.315 362.167C264.658 365.58 264.121 368.882 263.704 372.072C263.281 375.198 262.931 378.053 262.653 380.638C262.433 383.151 262.323 385.096 262.323 386.471C262.172 386.947 261.794 387.447 261.19 387.973C260.645 388.426 260.025 388.79 259.332 389.064C258.703 389.33 258.03 389.471 257.312 389.485C256.653 389.427 256.131 389.092 255.746 388.48ZM301.201 382.736C300.802 378.523 300.284 374.094 299.647 369.449C299.076 364.797 298.468 360.116 297.826 355.406C297.242 350.624 296.764 345.929 296.392 341.32C296.021 336.711 295.903 332.369 296.04 328.293C296.163 328.213 296.451 328.149 296.904 328.098C297.416 327.976 297.769 327.904 297.963 327.882C298.869 327.781 299.596 327.864 300.144 328.131C300.751 328.325 301.101 328.909 301.193 329.881C301.555 333.705 301.919 337.889 302.285 342.433C302.709 346.905 303.109 351.478 303.487 356.152C303.923 360.754 304.356 365.323 304.787 369.86C305.217 374.397 305.671 378.505 306.151 382.185C306.32 383.28 306.161 384.018 305.674 384.4C305.258 384.839 304.694 385.098 303.983 385.177C303.206 385.264 302.541 385.141 301.986 384.81C301.438 384.544 301.176 383.852 301.201 382.736ZM292.467 313.364C292.393 312.586 292.603 312.039 293.096 311.722C293.589 311.405 294.159 311.211 294.806 311.139C296.1 310.995 296.949 311.326 297.352 312.133C297.756 312.939 298.01 313.893 298.114 314.995C297.794 315.751 297.357 316.324 296.806 316.713C296.248 317.037 295.64 317.17 294.98 317.112C294.379 316.983 293.822 316.619 293.307 316.021C292.858 315.416 292.578 314.53 292.467 313.364ZM310.913 361.024C310.886 358.669 310.84 356.12 310.776 353.376C310.706 350.568 310.736 347.781 310.866 345.015C311.061 342.243 311.365 339.589 311.779 337.054C312.257 334.512 312.957 332.24 313.879 330.238C314.859 328.164 316.139 326.483 317.716 325.194C319.288 323.84 321.274 323.062 323.674 322.861C325.292 322.681 326.586 323.224 327.556 324.492C328.591 325.752 329.362 327.337 329.87 329.245C330.443 331.146 330.827 333.134 331.024 335.208C331.279 337.21 331.468 338.859 331.591 340.155C330.297 340.299 329.177 339.867 328.232 338.859C327.28 337.786 326.507 336.529 325.912 335.089C325.318 333.649 324.856 332.226 324.527 330.822L323.969 328.035C323.904 328.042 323.775 328.056 323.58 328.078C323.445 328.028 323.345 328.006 323.28 328.013C322.18 328.136 321.203 328.866 320.349 330.206C319.56 331.538 318.837 333.223 318.18 335.261C317.582 337.227 317.105 339.442 316.75 341.905C316.389 344.303 316.122 346.657 315.949 348.969C315.776 351.281 315.652 353.423 315.577 355.396C315.562 357.298 315.603 358.767 315.701 359.804C315.731 361.503 315.906 363.35 316.226 365.345C316.546 367.34 317.113 369.176 317.926 370.854C318.739 372.532 319.789 373.955 321.076 375.122C322.358 376.223 323.991 376.893 325.975 377.131C328.369 376.865 330.279 376.325 331.706 375.511C333.133 374.697 334.247 373.689 335.048 372.487C335.914 371.277 336.542 369.963 336.93 368.544C337.319 367.125 337.672 365.678 337.99 364.201C338.366 362.653 338.746 361.137 339.128 359.654C339.511 358.17 340.129 356.759 340.983 355.419C341.741 355.139 342.294 355.11 342.642 355.333C343.049 355.484 343.335 355.747 343.501 356.122C343.668 356.496 343.775 356.943 343.824 357.461L343.926 358.531C344.184 361.253 343.98 363.928 343.313 366.557C342.647 369.185 341.536 371.601 339.979 373.805C338.417 375.943 336.464 377.765 334.122 379.27C331.839 380.703 329.144 381.593 326.038 381.938C323.45 382.226 321.206 381.657 319.305 380.231C317.463 378.733 315.946 376.871 314.754 374.646C313.627 372.413 312.75 370.055 312.122 367.57C311.488 365.021 311.085 362.839 310.913 361.024ZM379.18 373.472C378.697 371.823 378.215 369.846 377.735 367.542C377.314 365.165 376.86 362.792 376.374 360.423C375.882 357.989 375.34 355.724 374.749 353.628C374.223 351.525 373.539 349.833 372.698 348.551C370.037 355.659 367.629 361.297 365.475 365.467C363.314 369.572 361.342 372.574 359.561 374.476C357.838 376.305 356.327 377.259 355.026 377.338C353.726 377.417 352.603 376.952 351.658 375.944C350.712 374.936 349.965 373.611 349.417 371.969C348.928 370.255 348.548 368.66 348.277 367.183C348.142 365.758 348.275 363.712 348.676 361.048C349.077 358.383 349.684 355.467 350.495 352.298C351.3 349.065 352.296 345.777 353.483 342.436C354.735 339.087 356.112 336.02 357.613 333.233C359.114 330.446 360.723 328.105 362.44 326.211C364.157 324.318 365.953 323.266 367.83 323.058C370.569 322.294 372.665 322.683 374.119 324.225C375.632 325.694 376.152 328.419 375.679 332.402C376.085 336.68 376.594 340.324 377.206 343.334C377.883 346.337 378.548 349.21 379.2 351.954C379.917 354.691 380.582 357.564 381.194 360.574C381.871 363.577 382.412 367.218 382.818 371.495C382.892 372.273 382.859 372.965 382.72 373.569C382.64 374.102 381.888 374.448 380.465 374.606C380.271 374.628 379.996 374.495 379.642 374.207C379.353 373.911 379.199 373.667 379.18 373.472ZM369.819 330.598C369.009 329.64 368.03 329.65 366.88 330.63C365.73 331.609 364.568 333.147 363.394 335.242C362.22 337.338 361.05 339.826 359.884 342.706C358.719 345.587 357.653 348.489 356.688 351.413C355.723 354.336 354.907 357.113 354.241 359.741C353.569 362.305 353.147 364.415 352.977 366.071C353.199 368.404 353.681 369.693 354.423 369.938C355.159 370.118 355.996 369.632 356.933 368.48C357.87 367.328 358.893 365.708 360.003 363.619C361.178 361.524 362.275 359.306 363.296 356.965C364.381 354.618 365.375 352.346 366.278 350.149C367.246 347.946 367.993 346.16 368.517 344.792C368.97 343.366 369.303 342.051 369.516 340.849C369.729 339.646 369.883 338.516 369.979 337.457C370.134 336.326 370.159 335.21 370.054 334.108C370.014 332.999 369.936 331.829 369.819 330.598ZM395.781 372.706C395.787 372.771 396.43 372.306 397.709 371.313C399.053 370.312 400.598 369.026 402.346 367.457C404.152 365.815 405.981 364.072 407.833 362.229C409.679 360.32 411.178 358.549 412.331 356.914C413.484 355.279 414.044 353.94 414.01 352.896C414.035 351.78 413.094 351.164 411.187 351.048C408.827 350.984 406.856 351.235 405.275 351.804C403.759 352.366 402.379 352.978 401.134 353.64C399.889 354.303 398.706 354.926 397.584 355.509C396.527 356.085 395.313 356.384 393.942 356.405C391.095 356.722 389.038 356.067 387.772 354.439C386.565 352.739 385.817 350.367 385.528 347.32C385.24 344.274 385.646 341.314 386.746 338.441C387.841 335.503 389.361 332.91 391.305 330.664C393.25 328.417 395.558 326.555 398.23 325.079C400.896 323.538 403.684 322.606 406.596 322.282C407.761 322.152 408.773 322.138 409.633 322.239C410.492 322.34 410.983 323.038 411.106 324.335C411.192 325.242 410.887 326.16 410.19 327.089C409.488 327.953 408.651 328.439 407.68 328.547C407.616 328.554 407.451 328.54 407.186 328.504C406.915 328.403 406.641 328.27 406.363 328.104C406.086 327.939 405.815 327.838 405.55 327.802C405.279 327.701 405.111 327.654 405.046 327.661C402.921 327.308 400.942 327.823 399.112 329.206C397.281 330.588 395.685 332.371 394.322 334.553C393.018 336.663 392.024 338.935 391.339 341.369C390.649 343.738 390.389 345.83 390.561 347.645C390.629 348.358 390.814 348.927 391.115 349.351C391.476 349.704 391.892 349.953 392.363 350.097C392.899 350.234 393.461 350.302 394.05 350.302C394.697 350.23 395.344 350.158 395.991 350.086C397.285 349.942 398.561 349.604 399.818 349.071C401.14 348.531 402.391 347.933 403.571 347.278C404.816 346.616 406.067 346.018 407.325 345.485C408.646 344.945 410.019 344.596 411.443 344.438C412.09 344.366 412.82 344.481 413.633 344.783C414.44 345.021 415.201 345.46 415.916 346.101C416.624 346.677 417.248 347.394 417.787 348.251C418.32 349.043 418.668 349.954 418.831 350.984C419.305 351.848 419.289 353.062 418.784 354.624C418.343 356.18 417.587 357.869 416.518 359.691C415.448 361.512 414.123 363.396 412.541 365.34C410.954 367.219 409.355 368.969 407.743 370.589C406.125 372.145 404.515 373.437 402.912 374.467C401.316 375.562 399.932 376.141 398.761 376.206C397.467 376.35 396.654 376.048 396.321 375.299C396.054 374.542 395.874 373.678 395.781 372.706Z" fill="#4D4D4D"/>
</g>
<defs>
<filter id="filter0_d_259_173" x="-0.0065918" y="0" width="554.287" height="593.834" filterUnits="userSpaceOnUse" color-interpolation-filters="sRGB">
<feFlood flood-opacity="0" result="BackgroundImageFix"/>
<feColorMatrix in="SourceAlpha" type="matrix" values="0 0 0 0 0 0 0 0 0 0 0 0 0 0 0 0 0 0 127 0" result="hardAlpha"/>
<feOffset dx="20" dy="17"/>
<feGaussianBlur stdDeviation="2"/>
<feComposite in2="hardAlpha" operator="out"/>
<feColorMatrix type="matrix" values="0 0 0 0 0 0 0 0 0 0 0 0 0 0 0 0 0 0 0.25 0"/>
<feBlend mode="normal" in2="BackgroundImageFix" result="effect1_dropShadow_259_173"/>
<feBlend mode="normal" in="SourceGraphic" in2="effect1_dropShadow_259_173" result="shape"/>
</filter>
<linearGradient id="paint0_linear_259_173" x1="263.853" y1="571.631" x2="265.569" y2="16.8866" gradientUnits="userSpaceOnUse">
<stop stop-color="#FBFBFB"/>
<stop offset="0.04" stop-color="#FDFDFD"/>
<stop offset="0.12" stop-color="#F9F9F9"/>
<stop offset="0.18" stop-color="#F9F9F9"/>
<stop offset="0.58" stop-color="#F2F2EE"/>
<stop offset="0.79" stop-color="#F2F2EE"/>
<stop offset="0.85" stop-color="#F2F2EE"/>
<stop offset="0.87" stop-color="#F2F2EE"/>
<stop offset="0.92" stop-color="#F2F2EE"/>
<stop offset="0.98" stop-color="#F2F2EE"/>
</linearGradient>
</defs>
</svg>
