<svg width="582" height="550" viewBox="0 0 582 550" fill="none" xmlns="http://www.w3.org/2000/svg">
<g filter="url(#filter0_d_259_169)">
<path d="M485.099 1.29612C452.079 -0.564101 390.088 0.348492 344.059 0.0677038C309.734 -0.142887 278.224 -0.142887 254.025 4.45501C199.963 14.7038 59.6775 61.2794 23.8767 103.924C-8.49156 142.532 -1.35202 377.376 7.33215 523C7.33215 523 251.416 511.768 332.8 508.083C385.283 505.696 435.054 501.485 486.404 495.974C489.511 439.104 489.649 382.105 486.815 325.22C483.143 240.001 485.099 1.29612 485.099 1.29612Z" fill="url(#paint0_linear_259_169)"/>
</g>
<path d="M76.6392 257.891C74.7558 247.701 73.3759 237.154 72.4994 226.25C71.6196 215.281 71.0845 204.683 70.8939 194.454C70.3255 194.815 69.8204 195.139 69.3787 195.427C68.9369 195.715 68.3911 195.879 67.7413 195.918C67.2864 195.946 66.8541 195.777 66.4445 195.41C66.0349 195.044 65.8154 194.568 65.7858 193.983L65.7711 193.69C65.7678 193.625 65.7953 193.526 65.8538 193.392C66.3441 192.775 66.9105 191.73 67.5531 190.256C68.2607 188.778 69.0024 187.33 69.7782 185.913C70.5508 184.431 71.3007 183.146 72.028 182.058C72.752 180.906 73.4064 180.311 73.9913 180.276C74.5761 180.24 75.0067 180.377 75.2831 180.686C75.6211 180.926 75.8975 181.236 76.1121 181.614C76.3268 181.992 76.5447 182.436 76.7659 182.944C77.0488 183.383 77.4243 183.719 77.8923 183.951C79.7827 182.662 81.8763 181.524 84.173 180.536C86.4698 179.548 88.7796 178.82 91.1026 178.353C93.4906 177.881 95.7959 177.708 98.0185 177.833C100.303 177.89 102.378 178.318 104.243 179.117C106.105 179.852 107.727 180.992 109.109 182.538C110.491 184.085 111.439 186.081 111.954 188.529C112.05 191.719 111.26 194.799 109.585 197.771C107.972 200.674 105.892 203.377 103.346 205.88C100.861 208.314 98.1378 210.535 95.1755 212.541C92.2099 214.483 89.4603 216.183 86.9266 217.642C84.4579 219.097 82.3985 220.266 80.7483 221.149C79.1631 222.028 78.4388 222.529 78.5753 222.651L80.3433 257.665C80.3695 258.185 80.1602 258.557 79.7151 258.78C79.2701 259.002 78.8526 259.126 78.4627 259.149C77.7479 259.193 77.1401 258.773 76.6392 257.891ZM76.9403 190.271C76.8406 192.168 76.6857 194.265 76.4757 196.56C76.3274 198.787 76.249 201.107 76.2405 203.521C76.2287 205.869 76.3453 208.177 76.5901 210.445C76.9 212.709 77.4583 214.73 78.2651 216.507C80.997 215.101 83.8523 213.557 86.831 211.876C89.8065 210.129 92.6421 208.195 95.3379 206.075C98.0337 203.954 100.427 201.656 102.518 199.18C104.671 196.636 106.226 193.867 107.183 190.874C107.105 189.313 106.452 188.016 105.227 186.982C104.066 185.944 102.656 185.117 100.995 184.5C99.3343 183.884 97.6201 183.499 95.8524 183.346C94.1464 183.124 92.7411 183.047 91.6364 183.114C90.9865 183.153 89.9241 183.414 88.4492 183.895C87.036 184.307 85.5319 184.855 83.9368 185.54C82.4035 186.155 80.9417 186.896 79.5514 187.764C78.2262 188.627 77.3558 189.463 76.9403 190.271ZM117.609 209.511L117.569 208.731C117.536 208.081 117.741 207.612 118.183 207.324C118.689 207.032 119.268 206.867 119.917 206.827C120.437 206.795 120.928 206.831 121.389 206.933C121.848 206.97 122.223 207.306 122.516 207.941C122.76 208.904 123.024 210.258 123.308 212.001C123.588 213.68 123.911 215.552 124.276 217.617C124.641 219.681 125.012 221.876 125.39 224.201C125.83 226.457 126.232 228.618 126.597 230.682C127.024 232.678 127.441 234.479 127.848 236.085C128.255 237.691 128.675 238.904 129.107 239.726C128.597 233.496 128.52 228.087 128.875 223.5C129.226 218.848 130.142 215.042 131.623 212.082C133.164 209.053 135.337 206.898 138.14 205.619C141.006 204.27 144.632 203.789 149.018 204.173C151.033 204.051 152.094 205.062 152.203 207.208C152.245 208.053 151.722 208.672 150.634 209.064C149.543 209.392 148.318 209.662 146.96 209.875C145.598 210.024 144.271 210.202 142.978 210.411C141.685 210.621 140.759 211.003 140.2 211.559C137.927 213.002 136.371 215.119 135.534 217.909C134.763 220.695 134.275 223.953 134.072 227.683C133.87 231.413 133.782 235.495 133.811 239.928C133.901 244.293 133.705 248.805 133.223 253.465C133.256 254.115 133.021 254.619 132.517 254.975C132.014 255.332 131.372 255.534 130.592 255.582C129.878 255.625 129.155 255.506 128.423 255.225C127.757 254.939 127.213 254.483 126.79 253.857L117.609 209.511ZM158.785 240.755C158.179 237.791 157.806 234.912 157.665 232.116C157.52 229.255 157.537 226.352 157.714 223.406C157.956 220.456 158.323 217.401 158.815 214.24C159.369 211.011 160.009 207.548 160.735 203.851C160.699 203.136 160.861 202.474 161.221 201.865C161.579 201.191 162.072 200.639 162.702 200.209C163.329 199.714 163.993 199.315 164.695 199.012C165.397 198.708 166.073 198.536 166.722 198.497C168.152 198.41 169.475 198.786 170.69 199.625C171.906 200.464 173.002 201.506 173.977 202.751C175.017 203.992 175.9 205.34 176.626 206.796C177.413 208.183 178.06 209.383 178.567 210.395C179.202 212.639 179.691 215.218 180.034 218.133C180.438 220.978 180.618 223.902 180.574 226.904C180.53 229.907 180.225 232.894 179.658 235.863C179.087 238.768 178.213 241.462 177.035 243.947C175.857 246.432 174.269 248.551 172.271 250.303C170.339 252.051 167.986 253.206 165.211 253.766C163.716 253.857 162.555 253.439 161.725 252.511C160.893 251.518 160.246 250.318 159.784 248.912C159.383 247.436 159.113 245.952 158.972 244.461C158.897 242.965 158.834 241.73 158.785 240.755ZM163.742 240.159C163.775 240.809 163.806 241.427 163.835 242.012C163.93 242.593 164.024 243.175 164.119 243.756C164.275 244.268 164.435 244.845 164.597 245.488C164.822 246.061 165.084 246.73 165.383 247.494L165.968 247.459C167.528 247.364 168.834 246.762 169.886 245.655C170.938 244.547 171.813 243.157 172.511 241.484C173.205 239.746 173.761 237.853 174.179 235.805C174.594 233.693 174.882 231.654 175.044 229.687C175.267 227.652 175.368 225.787 175.348 224.092C175.389 222.329 175.384 220.927 175.331 219.887L175.233 217.936C175.19 217.091 175.11 216.15 174.992 215.113C174.872 214.012 174.686 212.915 174.435 211.821C174.246 210.659 173.966 209.632 173.595 208.742C173.221 207.786 172.759 207.032 172.21 206.478C171.66 205.925 170.963 205.674 170.118 205.725C168.666 205.357 167.436 205.53 166.429 206.243C165.487 206.953 164.731 208.108 164.16 209.708C163.65 211.239 163.289 213.12 163.076 215.35C162.862 217.581 162.791 220.031 162.86 222.701C162.93 225.371 163.04 228.201 163.191 231.192C163.407 234.179 163.591 237.168 163.742 240.159ZM211.2 250.573L184.017 211.824C183.949 211.763 183.872 211.54 183.788 211.153C183.7 210.702 183.649 210.347 183.636 210.086C183.593 209.241 183.687 208.518 183.918 207.917C184.21 207.247 184.973 206.874 186.208 206.799C186.468 206.783 186.931 206.918 187.597 207.204C188.26 207.424 188.663 207.66 188.806 207.913C190.351 210.101 191.941 212.548 193.577 215.253C195.277 217.954 197.011 220.653 198.777 223.35C200.607 226.043 202.498 228.634 204.449 231.124C206.397 233.549 208.424 235.61 210.53 237.308L210.939 198.933C211.004 198.929 211.166 198.919 211.426 198.904C211.748 198.819 211.974 198.772 212.104 198.764C212.689 198.729 213.278 198.791 213.873 198.95C214.464 199.044 214.908 199.441 215.204 200.141C215.387 202.478 215.533 205.371 215.642 208.821C215.816 212.267 215.93 215.815 215.984 219.464C216.103 223.109 216.183 226.626 216.224 230.015C216.326 233.335 216.396 236.005 216.433 238.025C216.433 239.329 216.402 241.288 216.338 243.9C216.34 246.509 216.292 249.447 216.197 252.714C216.169 256.042 216.085 259.536 215.944 263.197C215.868 266.854 215.782 270.316 215.686 273.583C215.59 276.85 215.51 279.79 215.447 282.403C215.387 285.081 215.321 287.009 215.25 288.187L210.181 288.496L211.2 250.573ZM224.192 229.041C223.871 229.125 223.388 229.253 222.745 229.422C222.102 229.592 221.421 229.666 220.703 229.645C219.985 229.623 219.357 229.466 218.821 229.172C218.22 228.883 217.9 228.348 217.86 227.568C217.837 227.112 217.918 226.781 218.103 226.574C218.288 226.368 218.599 226.055 219.034 225.637C220.404 224.38 221.531 222.811 222.414 220.931C223.358 218.982 224.2 216.942 224.94 214.809C225.677 212.612 226.447 210.446 227.252 208.309C228.118 206.104 229.126 204.119 230.276 202.353C231.425 200.587 232.883 199.129 234.65 197.978C236.417 196.826 238.634 196.202 241.302 196.105C242.407 196.038 243.655 196.222 245.045 196.659C246.436 197.096 247.74 197.734 248.955 198.574C250.168 199.348 251.195 200.328 252.037 201.516C252.879 202.704 253.338 204.046 253.414 205.541C253.765 206.042 253.478 206.809 252.552 207.844C251.692 208.875 250.479 210.025 248.913 211.294C247.344 212.499 245.552 213.782 243.534 215.144C241.579 216.437 239.685 217.661 237.853 218.816C236.021 219.972 234.41 220.983 233.02 221.85C231.63 222.718 230.717 223.36 230.282 223.778C229.99 224.448 229.768 225.212 229.615 226.069C229.463 226.926 229.342 227.749 229.251 228.537C229.222 229.256 229.192 229.943 229.159 230.597C229.189 231.182 229.212 231.637 229.228 231.962C229.291 233.198 229.295 234.567 229.24 236.07C229.251 237.57 229.388 238.996 229.652 240.35C229.978 241.635 230.586 242.706 231.476 243.565C232.364 244.359 233.815 244.694 235.829 244.572C237.974 244.441 239.962 243.798 241.794 242.643C243.623 241.423 245.31 239.983 246.856 238.323C248.402 236.664 249.778 234.884 250.986 232.984C252.259 231.081 253.376 229.317 254.337 227.693C255.359 226 256.267 224.608 257.059 223.516C257.851 222.424 258.54 221.861 259.125 221.825C259.775 221.785 260.463 221.874 261.191 222.09C261.981 222.238 262.397 222.734 262.44 223.58C262.499 224.75 262.082 226.178 261.19 227.863C260.362 229.543 259.214 231.342 257.746 233.257C256.344 235.169 254.681 237.097 252.759 239.04C250.898 240.914 248.996 242.628 247.054 244.181C245.108 245.669 243.184 246.928 241.28 247.957C239.373 248.921 237.673 249.449 236.178 249.54C233.254 249.718 231.008 249.137 229.441 247.798C227.875 246.459 226.712 244.736 225.954 242.63C225.261 240.52 224.821 238.264 224.634 235.862C224.51 233.391 224.362 231.117 224.192 229.041ZM240.798 201.614C239.693 201.681 238.551 202.305 237.373 203.486C236.19 204.602 235.086 205.973 234.06 207.601C233.096 209.16 232.298 210.774 231.665 212.443C231.094 214.043 230.835 215.363 230.887 216.404C231.862 216.344 233.241 215.902 235.024 215.075C236.87 214.18 238.674 213.125 240.438 211.908C242.202 210.692 243.735 209.425 245.037 208.106C246.339 206.788 246.962 205.576 246.906 204.47C246.877 203.885 246.625 203.411 246.15 203.049C245.676 202.687 245.107 202.395 244.444 202.175C243.846 201.95 243.219 201.793 242.562 201.702C241.906 201.612 241.318 201.582 240.798 201.614ZM267.402 225.038C267.479 222.686 267.546 220.138 267.603 217.395C267.657 214.587 267.81 211.806 268.062 209.051C268.379 206.293 268.8 203.658 269.325 201.148C269.915 198.633 270.715 196.4 271.724 194.447C272.795 192.425 274.148 190.81 275.782 189.602C277.412 188.328 279.431 187.651 281.839 187.569C283.463 187.47 284.733 188.078 285.646 189.392C286.625 190.702 287.326 192.322 287.75 194.253C288.238 196.18 288.535 198.184 288.64 200.265C288.807 202.276 288.923 203.932 288.988 205.233C287.689 205.312 286.589 204.825 285.688 203.771C284.784 202.652 284.067 201.358 283.537 199.891C283.006 198.423 282.607 196.98 282.34 195.561L281.905 192.75C281.84 192.754 281.71 192.762 281.515 192.774C281.382 192.717 281.283 192.691 281.218 192.694C280.113 192.762 279.104 193.443 278.192 194.738C277.345 196.028 276.548 197.675 275.802 199.677C275.117 201.61 274.543 203.797 274.08 206.239C273.613 208.615 273.242 210.953 272.967 213.253C272.692 215.552 272.474 217.685 272.312 219.652C272.213 221.549 272.189 223.018 272.242 224.059C272.197 225.757 272.291 227.61 272.522 229.618C272.754 231.626 273.239 233.487 273.978 235.203C274.716 236.919 275.703 238.392 276.938 239.621C278.171 240.785 279.773 241.536 281.745 241.872C284.15 241.725 286.083 241.281 287.545 240.54C289.006 239.799 290.164 238.848 291.018 237.687C291.937 236.522 292.622 235.241 293.073 233.844C293.524 232.447 293.941 231.019 294.323 229.561C294.768 228.034 295.214 226.539 295.661 225.077C296.109 223.615 296.789 222.237 297.701 220.942C298.471 220.699 299.025 220.698 299.363 220.939C299.763 221.11 300.038 221.387 300.188 221.769C300.337 222.151 300.425 222.602 300.451 223.122L300.506 224.195C300.643 226.926 300.322 229.587 299.54 232.178C298.758 234.77 297.541 237.127 295.888 239.249C294.232 241.307 292.2 243.028 289.793 244.414C287.448 245.731 284.716 246.485 281.597 246.675C278.997 246.833 276.779 246.153 274.943 244.634C273.168 243.047 271.734 241.112 270.641 238.831C269.613 236.546 268.84 234.147 268.322 231.635C267.801 229.058 267.494 226.859 267.402 225.038ZM308.054 203.288C307.421 203.653 306.821 204.048 306.256 204.474C305.753 204.831 305.249 205.188 304.746 205.544C304.239 205.836 303.729 206.063 303.216 206.225C302.703 206.386 302.15 206.42 301.559 206.326C301.169 206.349 300.833 206.142 300.55 205.702C300.263 205.198 300.041 204.657 299.881 204.08C299.653 203.442 299.492 202.832 299.398 202.25C299.3 201.604 299.275 201.117 299.324 200.788L308.41 194.853L307.735 169.849C307.822 168.996 308.325 168.639 309.245 168.779C310.161 168.854 311.113 168.991 312.101 169.192C312.231 169.184 312.429 169.237 312.696 169.351C313.024 169.397 313.255 169.448 313.388 169.505C313.347 171.268 313.281 173.196 313.191 175.289C313.163 177.312 313.137 179.369 313.112 181.457C313.084 183.481 313.086 185.47 313.12 187.424C313.218 189.375 313.404 191.125 313.678 192.673L328.093 187.686C328.349 187.605 328.554 187.788 328.707 188.236C328.922 188.614 329.109 189.092 329.268 189.669C329.493 190.242 329.652 190.82 329.747 191.401C329.841 191.982 329.889 192.273 329.889 192.273L313.672 200.305C313.702 200.89 313.805 202.286 313.982 204.493C314.223 206.695 314.486 209.321 314.77 212.369C315.051 215.352 315.345 218.595 315.653 222.098C315.957 225.537 316.249 228.747 316.53 231.73C316.811 234.713 317.042 237.341 317.221 239.612C317.398 241.819 317.501 243.215 317.531 243.8C317.499 245.759 316.964 246.77 315.924 246.833C314.949 246.893 313.852 246.47 312.633 245.566L308.054 203.288ZM333.559 230.106C332.953 227.142 332.579 224.263 332.438 221.467C332.294 218.606 332.31 215.703 332.487 212.757C332.729 209.807 333.097 206.752 333.589 203.591C334.143 200.362 334.783 196.899 335.509 193.202C335.473 192.487 335.635 191.825 335.995 191.216C336.352 190.542 336.846 189.99 337.476 189.56C338.103 189.065 338.767 188.666 339.469 188.363C340.17 188.059 340.846 187.887 341.496 187.848C342.926 187.761 344.248 188.137 345.464 188.976C346.68 189.815 347.775 190.857 348.751 192.102C349.791 193.343 350.674 194.691 351.399 196.147C352.186 197.534 352.833 198.734 353.341 199.746C353.976 201.99 354.464 204.57 354.807 207.484C355.211 210.329 355.392 213.253 355.348 216.256C355.304 219.258 354.998 222.245 354.431 225.214C353.861 228.119 352.987 230.813 351.808 233.298C350.63 235.783 349.042 237.902 347.045 239.654C345.113 241.402 342.759 242.557 339.985 243.117C338.49 243.208 337.328 242.79 336.499 241.862C335.667 240.869 335.019 239.669 334.557 238.263C334.157 236.787 333.886 235.303 333.746 233.812C333.67 232.316 333.608 231.081 333.559 230.106ZM338.515 229.51C338.548 230.16 338.579 230.778 338.609 231.363C338.703 231.945 338.798 232.526 338.892 233.107C339.049 233.619 339.208 234.197 339.371 234.839C339.595 235.412 339.857 236.081 340.157 236.845L340.742 236.81C342.301 236.715 343.607 236.113 344.659 235.006C345.711 233.898 346.586 232.508 347.284 230.835C347.979 229.097 348.535 227.204 348.953 225.157C349.368 223.044 349.656 221.005 349.817 219.038C350.04 217.003 350.142 215.138 350.121 213.443C350.163 211.68 350.157 210.278 350.105 209.238L350.006 207.287C349.963 206.442 349.883 205.501 349.766 204.465C349.645 203.363 349.459 202.266 349.209 201.172C349.019 200.01 348.739 198.983 348.369 198.093C347.994 197.137 347.533 196.383 346.983 195.829C346.434 195.276 345.737 195.025 344.892 195.076C343.439 194.708 342.21 194.881 341.203 195.594C340.261 196.304 339.504 197.459 338.933 199.059C338.424 200.59 338.063 202.471 337.849 204.701C337.636 206.932 337.564 209.382 337.634 212.052C337.703 214.722 337.814 217.552 337.965 220.543C338.181 223.53 338.364 226.519 338.515 229.51ZM368.568 239.908C368.572 239.973 369.234 239.541 370.556 238.613C371.943 237.681 373.545 236.474 375.36 234.994C377.237 233.445 379.142 231.796 381.075 230.048C383.004 228.234 384.58 226.54 385.805 224.966C387.029 223.391 387.647 222.082 387.66 221.037C387.734 219.924 386.82 219.262 384.919 219.052C382.564 218.869 380.583 219.023 378.978 219.512C377.438 219.997 376.032 220.539 374.758 221.138C373.485 221.738 372.275 222.301 371.128 222.827C370.046 223.35 368.82 223.587 367.449 223.541C364.589 223.715 362.563 222.958 361.37 221.269C360.238 219.512 359.595 217.106 359.441 214.05C359.286 210.994 359.823 208.059 361.049 205.244C362.273 202.365 363.906 199.853 365.949 197.706C367.991 195.56 370.38 193.817 373.116 192.476C375.847 191.07 378.676 190.278 381.6 190.1C382.769 190.029 383.782 190.065 384.636 190.209C385.491 190.352 385.951 191.074 386.017 192.375C386.063 193.285 385.717 194.187 384.98 195.079C384.24 195.907 383.382 196.351 382.407 196.41C382.342 196.414 382.178 196.391 381.915 196.342C381.648 196.228 381.38 196.081 381.111 195.902C380.841 195.723 380.574 195.609 380.311 195.559C380.045 195.445 379.879 195.39 379.814 195.394C377.705 194.936 375.705 195.351 373.815 196.64C371.924 197.929 370.25 199.629 368.792 201.74C367.396 203.782 366.302 206.001 365.511 208.397C364.716 210.728 364.364 212.804 364.456 214.624C364.492 215.34 364.652 215.917 364.935 216.356C365.279 216.727 365.684 216.995 366.149 217.163C366.679 217.326 367.238 217.423 367.826 217.452C368.476 217.412 369.125 217.373 369.775 217.333C371.075 217.254 372.365 216.98 373.645 216.51C374.99 216.037 376.266 215.503 377.475 214.907C378.748 214.308 380.025 213.774 381.305 213.304C382.65 212.831 384.037 212.551 385.467 212.464C386.117 212.424 386.841 212.576 387.641 212.918C388.437 213.196 389.178 213.673 389.864 214.348C390.547 214.959 391.138 215.705 391.639 216.588C392.137 217.406 392.444 218.333 392.562 219.369C392.998 220.255 392.928 221.466 392.354 223.001C391.845 224.532 391.015 226.181 389.866 227.947C388.717 229.712 387.309 231.527 385.643 233.389C383.974 235.187 382.298 236.854 380.616 238.391C378.93 239.864 377.264 241.074 375.617 242.022C373.974 243.035 372.565 243.545 371.392 243.551C370.093 243.631 369.293 243.288 368.994 242.524C368.759 241.755 368.618 240.883 368.568 239.908Z" fill="#4D4D4D"/>
<defs>
<filter id="filter0_d_259_169" x="0" y="0" width="522.842" height="550" filterUnits="userSpaceOnUse" color-interpolation-filters="sRGB">
<feFlood flood-opacity="0" result="BackgroundImageFix"/>
<feColorMatrix in="SourceAlpha" type="matrix" values="0 0 0 0 0 0 0 0 0 0 0 0 0 0 0 0 0 0 127 0" result="hardAlpha"/>
<feOffset dx="30" dy="23"/>
<feGaussianBlur stdDeviation="2"/>
<feComposite in2="hardAlpha" operator="out"/>
<feColorMatrix type="matrix" values="0 0 0 0 0 0 0 0 0 0 0 0 0 0 0 0 0 0 0.25 0"/>
<feBlend mode="normal" in2="BackgroundImageFix" result="effect1_dropShadow_259_169"/>
<feBlend mode="normal" in="SourceGraphic" in2="effect1_dropShadow_259_169" result="shape"/>
</filter>
<linearGradient id="paint0_linear_259_169" x1="74.9054" y1="65.9139" x2="473.571" y2="501.837" gradientUnits="userSpaceOnUse">
<stop offset="0.07" stop-color="#FBFBFB"/>
<stop offset="0.09" stop-color="#FDFDFD"/>
<stop offset="0.15" stop-color="#F9F9F9"/>
<stop offset="0.2" stop-color="#FDFDFD"/>
<stop offset="0.26" stop-color="#FDFCF9"/>
<stop offset="0.41" stop-color="#FAF3F3"/>
<stop offset="0.59" stop-color="#F2F2EE"/>
<stop offset="0.88" stop-color="#F4F3EC"/>
<stop offset="0.96" stop-color="#F4F2E9"/>
<stop offset="1" stop-color="#DBD9D3"/>
</linearGradient>
</defs>
</svg>
