<svg width="93" height="35" viewBox="0 0 93 35" fill="none" xmlns="http://www.w3.org/2000/svg">
<path d="M9.148 34.602C5.56467 34.602 2.784 33.1257 0.806 30.173V27.851C1.58 29.571 2.698 30.9183 4.16 31.893C5.65067 32.8677 7.428 33.355 9.492 33.355C10.9253 33.355 12.244 33.0397 13.448 32.409C14.6807 31.7783 15.6553 30.8897 16.372 29.743C17.0887 28.5963 17.447 27.2777 17.447 25.787C17.447 24.4397 17.2177 23.2787 16.759 22.304C16.3003 21.3293 15.5407 20.3977 14.48 19.509C13.4193 18.5917 11.8857 17.5167 9.879 16.284L8.503 15.424C7.24167 14.65 6.224 13.962 5.45 13.36C4.676 12.758 4.00233 12.0557 3.429 11.253C2.68367 10.135 2.311 8.845 2.311 7.383C2.311 5.43367 2.94167 3.91433 4.203 2.825C5.46433 1.73567 7.06967 1.191 9.019 1.191C11.6563 1.191 13.749 2.16567 15.297 4.115V6.308C14.6377 5.104 13.7347 4.158 12.588 3.47C11.4413 2.782 10.18 2.438 8.804 2.438C7.37067 2.438 6.16667 2.88233 5.192 3.771C4.21733 4.65967 3.73 5.84933 3.73 7.34C3.73 8.802 4.17433 10.0633 5.063 11.124C5.98033 12.156 7.514 13.2883 9.664 14.521C12.3013 16.069 14.351 17.4737 15.813 18.735C16.845 19.681 17.5903 20.7273 18.049 21.874C18.5363 23.0207 18.78 24.2963 18.78 25.701C18.78 27.4783 18.3643 29.0407 17.533 30.388C16.7017 31.7353 15.555 32.7817 14.093 33.527C12.631 34.2437 10.9827 34.602 9.148 34.602ZM39.117 34.86C36.107 34.86 33.3407 34.129 30.818 32.667C28.2953 31.1763 26.2887 29.141 24.798 26.561C23.336 23.9523 22.605 21.0283 22.605 17.789C22.605 14.6643 23.3647 11.812 24.884 9.232C26.432 6.652 28.4817 4.61667 31.033 3.126C33.613 1.63533 36.3507 0.889998 39.246 0.889998C41.2527 0.889998 42.8437 1.07633 44.019 1.449C45.1943 1.793 46.556 2.40933 48.104 3.298V4.889C46.642 3.88567 45.2803 3.18333 44.019 2.782C42.7863 2.352 41.2383 2.137 39.375 2.137C36.537 2.137 33.9427 2.868 31.592 4.33C29.27 5.76333 27.421 7.69833 26.045 10.135C24.6977 12.543 24.024 15.1373 24.024 17.918C24.024 20.7273 24.712 23.336 26.088 25.744C27.464 28.152 29.2843 30.0727 31.549 31.506C33.8423 32.9107 36.3077 33.613 38.945 33.613C40.837 33.613 42.4853 33.398 43.89 32.968C45.2947 32.5093 46.6993 31.807 48.104 30.861V32.452C46.728 33.2833 45.309 33.8853 43.847 34.258C42.4137 34.6593 40.837 34.86 39.117 34.86ZM60.9664 34.602C57.383 34.602 54.6024 33.1257 52.6244 30.173V27.851C53.3984 29.571 54.5164 30.9183 55.9784 31.893C57.469 32.8677 59.2464 33.355 61.3104 33.355C62.7437 33.355 64.0624 33.0397 65.2664 32.409C66.499 31.7783 67.4737 30.8897 68.1904 29.743C68.907 28.5963 69.2654 27.2777 69.2654 25.787C69.2654 24.4397 69.036 23.2787 68.5774 22.304C68.1187 21.3293 67.359 20.3977 66.2984 19.509C65.2377 18.5917 63.704 17.5167 61.6974 16.284L60.3214 15.424C59.06 14.65 58.0424 13.962 57.2684 13.36C56.4944 12.758 55.8207 12.0557 55.2474 11.253C54.502 10.135 54.1294 8.845 54.1294 7.383C54.1294 5.43367 54.76 3.91433 56.0214 2.825C57.2827 1.73567 58.888 1.191 60.8374 1.191C63.4747 1.191 65.5674 2.16567 67.1154 4.115V6.308C66.456 5.104 65.553 4.158 64.4064 3.47C63.2597 2.782 61.9984 2.438 60.6224 2.438C59.189 2.438 57.985 2.88233 57.0104 3.771C56.0357 4.65967 55.5484 5.84933 55.5484 7.34C55.5484 8.802 55.9927 10.0633 56.8814 11.124C57.7987 12.156 59.3324 13.2883 61.4824 14.521C64.1197 16.069 66.1694 17.4737 67.6314 18.735C68.6634 19.681 69.4087 20.7273 69.8674 21.874C70.3547 23.0207 70.5984 24.2963 70.5984 25.701C70.5984 27.4783 70.1827 29.0407 69.3514 30.388C68.52 31.7353 67.3734 32.7817 65.9114 33.527C64.4494 34.2437 62.801 34.602 60.9664 34.602ZM82.5503 34.602C78.967 34.602 76.1863 33.1257 74.2083 30.173V27.851C74.9823 29.571 76.1003 30.9183 77.5623 31.893C79.053 32.8677 80.8303 33.355 82.8943 33.355C84.3277 33.355 85.6463 33.0397 86.8503 32.409C88.083 31.7783 89.0577 30.8897 89.7743 29.743C90.491 28.5963 90.8493 27.2777 90.8493 25.787C90.8493 24.4397 90.62 23.2787 90.1613 22.304C89.7027 21.3293 88.943 20.3977 87.8823 19.509C86.8217 18.5917 85.288 17.5167 83.2813 16.284L81.9053 15.424C80.644 14.65 79.6263 13.962 78.8523 13.36C78.0783 12.758 77.4047 12.0557 76.8313 11.253C76.086 10.135 75.7133 8.845 75.7133 7.383C75.7133 5.43367 76.344 3.91433 77.6053 2.825C78.8667 1.73567 80.472 1.191 82.4213 1.191C85.0587 1.191 87.1513 2.16567 88.6993 4.115V6.308C88.04 5.104 87.137 4.158 85.9903 3.47C84.8437 2.782 83.5823 2.438 82.2063 2.438C80.773 2.438 79.569 2.88233 78.5943 3.771C77.6197 4.65967 77.1323 5.84933 77.1323 7.34C77.1323 8.802 77.5767 10.0633 78.4653 11.124C79.3827 12.156 80.9163 13.2883 83.0663 14.521C85.7037 16.069 87.7533 17.4737 89.2153 18.735C90.2473 19.681 90.9927 20.7273 91.4513 21.874C91.9387 23.0207 92.1823 24.2963 92.1823 25.701C92.1823 27.4783 91.7667 29.0407 90.9353 30.388C90.104 31.7353 88.9573 32.7817 87.4953 33.527C86.0333 34.2437 84.385 34.602 82.5503 34.602Z" fill="black"/>
</svg>
