<svg width="217" height="34" viewBox="0 0 217 34" fill="none" xmlns="http://www.w3.org/2000/svg">
<path d="M29.498 0.749997L14.749 33.731L0 0.749997H1.548L14.878 30.463L28.036 0.749997H29.498ZM42.5505 33.86C40.6872 33.86 39.0245 33.473 37.5625 32.699C36.1005 31.8963 34.9538 30.764 34.1225 29.302C33.2912 27.84 32.8755 26.1343 32.8755 24.185V0.749997H34.2945V24.142C34.2945 25.862 34.6528 27.367 35.3695 28.657C36.0862 29.9183 37.0608 30.893 38.2935 31.581C39.5548 32.269 40.9595 32.613 42.5075 32.613C44.0555 32.613 45.4458 32.2833 46.6785 31.624C47.9399 30.936 48.9145 29.9613 49.6025 28.7C50.3192 27.41 50.6775 25.8907 50.6775 24.142V0.749997H52.0965V24.099C52.0965 26.077 51.6952 27.8113 50.8925 29.302C50.0899 30.764 48.9575 31.8963 47.4955 32.699C46.0622 33.473 44.4138 33.86 42.5505 33.86ZM58.9107 0.749997H70.4777V1.997H60.3297V19.541H68.8007V20.788H60.3297V31.753H70.4777V33H58.9107V0.749997ZM74.5637 33.387C74.1623 33.387 73.804 33.2437 73.4887 32.957C73.202 32.6703 73.0587 32.312 73.0587 31.882C73.0587 31.4807 73.202 31.1367 73.4887 30.85C73.804 30.5633 74.1623 30.42 74.5637 30.42C74.965 30.42 75.309 30.5633 75.5957 30.85C75.911 31.1367 76.0687 31.4807 76.0687 31.882C76.0687 32.312 75.911 32.6703 75.5957 32.957C75.309 33.2437 74.965 33.387 74.5637 33.387ZM85.1276 33.645C83.8376 33.645 82.6479 33.4443 81.5586 33.043C80.4979 32.6703 79.4659 32.054 78.4626 31.194V29.431C80.2686 31.409 82.5189 32.398 85.2136 32.398C87.6789 32.398 89.5996 31.6383 90.9756 30.119C92.3516 28.571 93.0396 26.292 93.0396 23.282V1.997H85.0846V0.749997H94.4586V23.11C94.4586 26.55 93.6272 29.173 91.9646 30.979C90.3019 32.7563 88.0229 33.645 85.1276 33.645ZM107.99 33.602C104.406 33.602 101.626 32.1257 99.6478 29.173V26.851C100.422 28.571 101.54 29.9183 103.002 30.893C104.492 31.8677 106.27 32.355 108.334 32.355C109.767 32.355 111.086 32.0397 112.29 31.409C113.522 30.7783 114.497 29.8897 115.214 28.743C115.93 27.5963 116.289 26.2777 116.289 24.787C116.289 23.4397 116.059 22.2787 115.601 21.304C115.142 20.3293 114.382 19.3977 113.322 18.509C112.261 17.5917 110.727 16.5167 108.721 15.284L107.345 14.424C106.083 13.65 105.066 12.962 104.292 12.36C103.518 11.758 102.844 11.0557 102.271 10.253C101.525 9.135 101.153 7.845 101.153 6.383C101.153 4.43367 101.783 2.91433 103.045 1.825C104.306 0.735666 105.911 0.191 107.861 0.191C110.498 0.191 112.591 1.16567 114.139 3.115V5.308C113.479 4.104 112.576 3.158 111.43 2.47C110.283 1.782 109.022 1.438 107.646 1.438C106.212 1.438 105.008 1.88233 104.034 2.771C103.059 3.65967 102.572 4.84933 102.572 6.34C102.572 7.802 103.016 9.06333 103.905 10.124C104.822 11.156 106.356 12.2883 108.506 13.521C111.143 15.069 113.193 16.4737 114.655 17.735C115.687 18.681 116.432 19.7273 116.891 20.874C117.378 22.0207 117.622 23.2963 117.622 24.701C117.622 26.4783 117.206 28.0407 116.375 29.388C115.543 30.7353 114.397 31.7817 112.935 32.527C111.473 33.2437 109.824 33.602 107.99 33.602ZM143.377 0.835999H145.054L121.017 33H119.426L143.377 0.835999ZM174.539 0.749997L159.79 33.731L145.041 0.749997H146.589L159.919 30.463L173.077 0.749997H174.539ZM178.132 0.749997H179.551V33H178.132V0.749997ZM191.512 1.997H184.073V0.749997H200.284V1.997H192.931V33H191.512V1.997ZM204.582 0.749997H216.149V1.997H206.001V19.541H214.472V20.788H206.001V31.753H216.149V33H204.582V0.749997Z" fill="black"/>
</svg>
